<?xml version="1.0" encoding="UTF-8" standalone="no"?>
<svg
   xmlns:dc="http://purl.org/dc/elements/1.1/"
   xmlns:cc="http://creativecommons.org/ns#"
   xmlns:rdf="http://www.w3.org/1999/02/22-rdf-syntax-ns#"
   xmlns:svg="http://www.w3.org/2000/svg"
   xmlns="http://www.w3.org/2000/svg"
   xmlns:sodipodi="http://sodipodi.sourceforge.net/DTD/sodipodi-0.dtd"
   xmlns:inkscape="http://www.inkscape.org/namespaces/inkscape"
   width="100%"
   height="100%"
   viewBox="0 0 31 31"
   version="1.1"
   xml:space="preserve"
   style="fill-rule:evenodd;clip-rule:evenodd;stroke-miterlimit:100;"
   id="svg29"
   sodipodi:docname="icon-telegram.svg"
   inkscape:version="0.92.1 r15371"><metadata
     id="metadata35"><rdf:RDF><cc:Work
         rdf:about=""><dc:format>image/svg+xml</dc:format><dc:type
           rdf:resource="http://purl.org/dc/dcmitype/StillImage" /><dc:title></dc:title></cc:Work></rdf:RDF></metadata><defs
     id="defs33" /><sodipodi:namedview
     pagecolor="#ffffff"
     bordercolor="#666666"
     borderopacity="1"
     objecttolerance="10"
     gridtolerance="10"
     guidetolerance="10"
     inkscape:pageopacity="0"
     inkscape:pageshadow="2"
     inkscape:window-width="1920"
     inkscape:window-height="1001"
     id="namedview31"
     showgrid="false"
     inkscape:zoom="21.532542"
     inkscape:cx="18.63441"
     inkscape:cy="8.6585015"
     inkscape:window-x="-9"
     inkscape:window-y="-9"
     inkscape:window-maximized="1"
     inkscape:current-layer="svg29" /><path
     id="path4495"
     d="m 19.464096,21.060558 1.988813,-9.375831 Q 21.574673,11.089436 21.31085,10.832379 21.047028,10.575321 20.614089,10.73767 L 8.9247416,15.242939 q -0.3923504,0.148823 -0.5344084,0.338234 -0.1420581,0.189411 -0.033821,0.358528 0.1082343,0.169116 0.4329383,0.263821 l 2.9899835,0.933524 6.94055,-4.369975 q 0.284116,-0.189412 0.43294,-0.08118 0.09471,0.06764 -0.05412,0.202939 l -5.614675,5.073502 -0.21647,3.084689 q 0.311175,0 0.60882,-0.297645 l 1.461169,-1.407051 3.030572,2.232341 q 0.865877,0.487055 1.095877,-0.514115 z M 27.622287,15.5 q 0,2.462339 -0.960583,4.70821 -0.960583,2.245869 -2.584105,3.869389 -1.62352,1.623522 -3.869389,2.584105 -2.245871,0.960583 -4.70821,0.960583 -2.462339,0 -4.70821,-0.960583 Q 8.54592,25.701121 6.9224,24.077599 5.2988792,22.454079 4.3382963,20.20821 3.3777133,17.962339 3.3777133,15.5 q 0,-2.46234 0.9605829,-4.70821 Q 5.2988792,8.5459203 6.9224,6.9223996 8.54592,5.2988792 10.79179,4.3382962 13.037661,3.3777133 15.5,3.3777133 q 2.462339,0 4.70821,0.9605829 2.245869,0.960583 3.869389,2.5841034 1.623522,1.6235207 2.584105,3.8693904 0.960583,2.24587 0.960583,4.70821 z"
     inkscape:connector-curvature="0"
     style="stroke-width:0.01352933" /></svg>