<?xml version="1.0" encoding="UTF-8" standalone="no"?><!DOCTYPE svg PUBLIC "-//W3C//DTD SVG 1.1//EN" "http://www.w3.org/Graphics/SVG/1.1/DTD/svg11.dtd"><svg width="100%" height="100%" viewBox="0 0 512 512" version="1.1" xmlns="http://www.w3.org/2000/svg" xmlns:xlink="http://www.w3.org/1999/xlink" xml:space="preserve" style="fill-rule:evenodd;clip-rule:evenodd;stroke-linejoin:round;stroke-miterlimit:1.41421;"><path d="M295.257,148.004l0,137.443c0,2.864 -0.922,5.217 -2.766,7.061c-1.844,1.844 -4.198,2.766 -7.061,2.766l-98.169,0c-2.863,0 -5.217,-0.922 -7.061,-2.766c-1.844,-1.844 -2.766,-4.197 -2.766,-7.061l0,-19.637c0,-2.863 0.922,-5.217 2.766,-7.061c1.844,-1.844 4.198,-2.766 7.061,-2.766l68.722,0l0,-107.996c0,-2.863 0.922,-5.217 2.766,-7.061c1.844,-1.844 4.198,-2.766 7.061,-2.766l19.637,0c2.864,0 5.217,0.922 7.061,2.766c1.844,1.844 2.766,4.198 2.766,7.061l-0.017,0.017Zm127.633,107.996c0,-30.272 -7.468,-58.19 -22.403,-83.754c-14.936,-25.565 -35.186,-45.814 -60.75,-60.75c-25.564,-14.935 -53.482,-22.403 -83.754,-22.403c-30.272,0 -58.19,7.468 -83.754,22.403c-25.565,14.936 -45.815,35.185 -60.75,60.75c-14.936,25.564 -22.403,53.482 -22.403,83.754c0,30.272 7.467,58.19 22.403,83.754c14.935,25.565 35.185,45.814 60.75,60.75c25.564,14.935 53.482,22.403 83.754,22.403c30.272,0 58.19,-7.468 83.754,-22.403c25.564,-14.936 45.814,-35.185 60.75,-60.75c14.935,-25.564 22.403,-53.482 22.403,-83.754Zm68.721,0c0,42.745 -10.531,82.168 -31.594,118.27c-21.063,36.101 -49.646,64.684 -85.747,85.747c-36.102,21.063 -75.525,31.594 -118.27,31.594c-42.745,0 -82.168,-10.531 -118.27,-31.594c-36.101,-21.063 -64.684,-49.646 -85.747,-85.747c-21.063,-36.102 -31.594,-75.525 -31.594,-118.27c0,-42.745 10.531,-82.168 31.594,-118.27c21.063,-36.101 49.646,-64.684 85.747,-85.747c36.102,-21.063 75.525,-31.594 118.27,-31.594c42.745,0 82.168,10.531 118.27,31.594c36.101,21.063 64.684,49.646 85.747,85.747c21.063,36.102 31.594,75.525 31.594,118.27Z" style="fill-rule:nonzero;"/></svg>