<?xml version="1.0" encoding="UTF-8" standalone="no"?><!DOCTYPE svg PUBLIC "-//W3C//DTD SVG 1.1//EN" "http://www.w3.org/Graphics/SVG/1.1/DTD/svg11.dtd"><svg width="100%" height="100%" viewBox="0 0 512 512" version="1.1" xmlns="http://www.w3.org/2000/svg" xmlns:xlink="http://www.w3.org/1999/xlink" xml:space="preserve" style="fill-rule:evenodd;clip-rule:evenodd;stroke-linejoin:round;stroke-miterlimit:1.41421;"><g id="Icon"><path d="M383.562,256c0,5.315 -1.942,9.915 -5.826,13.799l-166.812,166.812c-3.884,3.884 -8.484,5.826 -13.799,5.826c-5.315,0 -9.914,-1.942 -13.799,-5.826c-3.884,-3.885 -5.826,-8.484 -5.826,-13.799l0,-88.312l-137.374,0c-5.315,0 -9.915,-1.942 -13.799,-5.826c-3.884,-3.885 -5.826,-8.484 -5.826,-13.799l0,-117.75c0,-5.315 1.942,-9.914 5.826,-13.799c3.884,-3.884 8.484,-5.826 13.799,-5.826l137.374,0l0,-88.312c0,-5.315 1.942,-9.914 5.826,-13.799c3.885,-3.884 8.484,-5.826 13.799,-5.826c5.315,0 9.915,1.942 13.799,5.826l166.812,166.812c3.884,3.884 5.826,8.484 5.826,13.799m107.937,-107.937l0,215.874c0,24.327 -8.637,45.127 -25.911,62.401c-17.274,17.274 -38.074,25.911 -62.401,25.911l-98.125,0c-2.657,0 -4.957,-0.971 -6.899,-2.913c-1.942,-1.942 -2.913,-4.242 -2.913,-6.899c0,-0.818 -0.102,-2.862 -0.307,-6.133c-0.204,-3.271 -0.255,-5.98 -0.153,-8.126c0.102,-2.146 0.409,-4.548 0.92,-7.206c0.511,-2.658 1.533,-4.651 3.066,-5.98c1.533,-1.328 3.629,-1.993 6.286,-1.993l98.125,0c13.492,0 25.042,-4.804 34.65,-14.412c9.608,-9.608 14.412,-21.158 14.412,-34.65l0,-215.874c0,-13.492 -4.804,-25.042 -14.412,-34.65c-9.608,-9.608 -21.158,-14.412 -34.65,-14.412l-95.672,0l-3.526,-0.307l-3.526,-0.92l-2.453,-1.686l-2.147,-2.76l-0.613,-4.14c0,-0.818 -0.102,-2.862 -0.307,-6.133c-0.204,-3.27 -0.255,-5.979 -0.153,-8.126c0.102,-2.146 0.409,-4.548 0.92,-7.206c0.511,-2.657 1.533,-4.65 3.066,-5.979c1.533,-1.329 3.629,-1.993 6.286,-1.993l98.125,0c24.327,0 45.127,8.637 62.401,25.911c17.274,17.274 25.911,38.074 25.911,62.401" style="fill-rule:nonzero;"/></g></svg>