<?xml version="1.0" encoding="UTF-8" standalone="no"?><!DOCTYPE svg PUBLIC "-//W3C//DTD SVG 1.1//EN" "http://www.w3.org/Graphics/SVG/1.1/DTD/svg11.dtd">
<svg version="1.1"viewBox="0 0 2134 2134"  xmlns="http://www.w3.org/2000/svg">
    <path id="Icon" d="M144.219,2025.86c-16.081,16.08 -29.623,21.583 -40.628,16.507c-11.005,-5.075 -16.507,-18.618 -16.507,-40.628l0,-1870.3c0,-22.01 5.502,-35.552 16.507,-40.628c11.005,-5.075 24.547,0.427 40.628,16.507l902.136,902.137c7.637,7.637 13.14,15.677 16.508,24.121l0,-902.137c0,-22.01 5.502,-35.552 16.507,-40.628c11.005,-5.075 24.547,0.427 40.628,16.507l902.136,902.137c16.081,16.08 24.121,35.149 24.121,57.206c0,22.057 -8.04,41.126 -24.121,57.207l-902.136,902.136c-16.081,16.081 -29.623,21.583 -40.628,16.508c-11.005,-5.076 -16.507,-18.619 -16.507,-40.628l0,-902.137c-3.368,8.491 -8.871,16.531 -16.508,24.121l-902.136,901.994l0,-0.002Z">
</svg>