<?xml version="1.0" encoding="UTF-8" standalone="no"?><!DOCTYPE svg PUBLIC "-//W3C//DTD SVG 1.1//EN" "http://www.w3.org/Graphics/SVG/1.1/DTD/svg11.dtd"><svg width="100%" height="100%" viewBox="0 0 2134 2134" version="1.1" xmlns="http://www.w3.org/2000/svg" xmlns:xlink="http://www.w3.org/1999/xlink" xml:space="preserve" style="fill-rule:evenodd;clip-rule:evenodd;stroke-linejoin:round;stroke-miterlimit:1.41421;"><g id="Icon"><path d="M1443.5,915.975c0,-145.262 -51.616,-269.508 -154.847,-372.739c-103.231,-103.231 -227.477,-154.846 -372.739,-154.846c-145.262,0 -269.508,51.615 -372.739,154.846c-103.231,103.231 -154.846,227.477 -154.846,372.739c0,145.262 51.615,269.508 154.846,372.739c103.231,103.231 227.477,154.846 372.739,154.846c145.262,0 269.508,-51.615 372.739,-154.846c103.231,-103.231 154.847,-227.477 154.847,-372.739Zm602.964,979.792c0,40.844 -14.927,76.17 -44.779,105.979c-29.853,29.808 -65.179,44.735 -105.979,44.779c-42.383,0 -77.709,-14.927 -105.979,-44.779l-403.932,-402.746c-140.514,97.34 -297.141,146.01 -469.881,146.01c-112.288,0 -219.651,-21.785 -322.091,-65.355c-102.439,-43.57 -190.766,-102.462 -264.979,-176.675c-74.214,-74.214 -133.106,-162.54 -176.676,-264.98c-43.569,-102.439 -65.354,-209.803 -65.354,-322.091c0,-112.288 21.785,-219.651 65.354,-322.091c43.57,-102.439 102.462,-190.766 176.676,-264.979c74.213,-74.214 162.54,-133.106 264.979,-176.676c102.44,-43.569 209.803,-65.354 322.091,-65.354c112.288,0 219.652,21.785 322.091,65.354c102.44,43.57 190.766,102.462 264.98,176.676c74.213,74.213 133.105,162.54 176.675,264.979c43.57,102.44 65.355,209.803 65.355,322.091c0,172.74 -48.67,329.367 -146.01,469.881l403.933,403.932c29.061,29.062 43.592,64.388 43.592,105.979l-0.066,0.066Z" style="fill-rule:nonzero;"/></g></svg>