<?xml version="1.0" encoding="UTF-8" standalone="no"?>
<!DOCTYPE svg PUBLIC "-//W3C//DTD SVG 1.1//EN" "http://www.w3.org/Graphics/SVG/1.1/DTD/svg11.dtd">
<svg width="100%" height="100%" viewBox="0 0 2134 2134" version="1.1" xmlns="http://www.w3.org/2000/svg" xmlns:xlink="http://www.w3.org/1999/xlink" xml:space="preserve" style="fill-rule:evenodd;clip-rule:evenodd;stroke-linejoin:round;stroke-miterlimit:1.41421;">
    <g transform="matrix(92.1348,0,0,92.1348,-91.6518,-512.8)">
        <g id="Icon">
            <path d="M23.179,23.607C23.179,24.083 23.012,24.488 22.679,24.821L20.25,27.25C19.917,27.583 19.512,27.75 19.036,27.75C18.56,27.75 18.155,27.583 17.822,27.25L12.572,22L7.322,27.25C6.989,27.583 6.584,27.75 6.108,27.75C5.632,27.75 5.227,27.583 4.894,27.25L2.465,24.821C2.132,24.488 1.965,24.083 1.965,23.607C1.965,23.131 2.132,22.726 2.465,22.393L7.715,17.143L2.465,11.893C2.132,11.56 1.965,11.155 1.965,10.679C1.965,10.203 2.132,9.798 2.465,9.465L4.894,7.036C5.227,6.703 5.632,6.536 6.108,6.536C6.584,6.536 6.989,6.703 7.322,7.036L12.572,12.286L17.822,7.036C18.155,6.703 18.56,6.536 19.036,6.536C19.512,6.536 19.917,6.703 20.25,7.036L22.679,9.465C23.012,9.798 23.179,10.203 23.179,10.679C23.179,11.155 23.012,11.56 22.679,11.893L17.429,17.143L22.679,22.393C23.012,22.726 23.179,23.131 23.179,23.607Z" style="fill-rule:nonzero;"/>
        </g>
    </g>
</svg>
