<?xml version="1.0" encoding="UTF-8" standalone="no"?><!DOCTYPE svg PUBLIC "-//W3C//DTD SVG 1.1//EN" "http://www.w3.org/Graphics/SVG/1.1/DTD/svg11.dtd"><svg width="100%" height="100%" viewBox="0 0 2134 2134" version="1.1" xmlns="http://www.w3.org/2000/svg" xmlns:xlink="http://www.w3.org/1999/xlink" xml:space="preserve" style="fill-rule:evenodd;clip-rule:evenodd;stroke-linejoin:round;stroke-miterlimit:1.41421;"><g id="Icon"><path d="M1989.12,107.466c16.081,-16.08 29.623,-21.583 40.628,-16.507c11.005,5.075 16.507,18.618 16.507,40.628l0,1870.3c0,22.01 -5.502,35.552 -16.507,40.628c-11.005,5.075 -24.547,-0.427 -40.628,-16.507l-902.136,-902.137c-7.637,-7.637 -13.14,-15.677 -16.508,-24.121l0,902.137c0,22.01 -5.502,35.552 -16.507,40.628c-11.005,5.075 -24.547,-0.427 -40.628,-16.507l-902.136,-902.137c-16.081,-16.08 -24.121,-35.149 -24.121,-57.206c0,-22.057 8.04,-41.126 24.121,-57.207l902.136,-902.136c16.081,-16.081 29.623,-21.583 40.628,-16.508c11.005,5.076 16.507,18.619 16.507,40.628l0,902.137c3.368,-8.491 8.871,-16.531 16.508,-24.121l902.136,-901.994Z" style="fill-rule:nonzero;"/></g></svg>