<?xml version="1.0" encoding="UTF-8" standalone="no"?><!DOCTYPE svg PUBLIC "-//W3C//DTD SVG 1.1//EN" "http://www.w3.org/Graphics/SVG/1.1/DTD/svg11.dtd"><svg width="100%" height="100%" viewBox="0 0 2134 2134" version="1.1" xmlns="http://www.w3.org/2000/svg" xmlns:xlink="http://www.w3.org/1999/xlink" xml:space="preserve" style="fill:#fff;fill-rule:evenodd;clip-rule:evenodd;stroke-linejoin:round;stroke-miterlimit:1.41421;"><g id="Icon"><path d="M1879.74,1705.71c0,92.302 -26.467,171.489 -79.4,237.561c-52.934,66.072 -116.682,99.108 -191.244,99.108l-1085,0c-74.515,0 -138.263,-33.036 -191.244,-99.108c-52.981,-66.072 -79.448,-145.259 -79.4,-237.561c0,-72.001 3.605,-139.97 10.814,-203.908c7.21,-63.938 20.562,-128.302 40.056,-193.093c19.495,-64.792 44.277,-120.263 74.349,-166.414c30.072,-46.151 69.89,-83.835 119.456,-113.053c49.566,-29.218 106.531,-43.826 170.896,-43.826c110.942,108.428 243.489,162.642 397.642,162.642c154.152,0 286.699,-54.214 397.642,-162.642c64.364,0 121.329,14.608 170.895,43.826c49.566,29.218 89.385,66.902 119.456,113.053c30.072,46.151 54.855,101.622 74.349,166.414c19.495,64.791 32.847,129.155 40.056,193.093c7.21,63.938 10.814,131.907 10.814,203.908l-0.142,0Zm-325.214,-1126.9c0,134.658 -47.645,249.632 -142.935,344.922c-95.289,95.29 -210.263,142.935 -344.921,142.935c-134.658,0 -249.632,-47.645 -344.922,-142.935c-95.29,-95.29 -142.935,-210.264 -142.935,-344.922c0,-134.658 47.645,-249.632 142.935,-344.922c95.29,-95.289 210.264,-142.934 344.922,-142.934c134.658,0 249.632,47.645 344.921,142.934c95.29,95.29 142.935,210.264 142.935,344.922Z" style="fill:#fff;fill-rule:nonzero;"/></g></svg>