<?xml version="1.0" encoding="UTF-8" standalone="no"?>
<!DOCTYPE svg PUBLIC "-//W3C//DTD SVG 1.1//EN" "http://www.w3.org/Graphics/SVG/1.1/DTD/svg11.dtd">
<svg width="100%" height="100%" viewBox="0 0 2134 2134" version="1.1" xmlns="http://www.w3.org/2000/svg" xmlns:xlink="http://www.w3.org/1999/xlink" xml:space="preserve" style="fill-rule:evenodd;clip-rule:evenodd;stroke-linejoin:round;stroke-miterlimit:1.41421;">
    <g transform="matrix(1.09069,0,0,1.09069,89.4048,19.6004)">
        <g id="Icon">
            <path d="M1664,1504L1664,736C1642.67,760 1619.67,782 1595,802C1416.33,939.333 1274.33,1052 1169,1140C1135,1168.67 1107.33,1191 1086,1207C1064.67,1223 1035.83,1239.17 999.5,1255.5C963.167,1271.83 929,1280 897,1280L895,1280C863,1280 828.833,1271.83 792.5,1255.5C756.167,1239.17 727.333,1223 706,1207C684.667,1191 657,1168.67 623,1140C517.667,1052 375.667,939.333 197,802C172.333,782 149.333,760 128,736L128,1504C128,1512.67 131.167,1520.17 137.5,1526.5C143.833,1532.83 151.333,1536 160,1536L1632,1536C1640.67,1536 1648.17,1532.83 1654.5,1526.5C1660.83,1520.17 1664,1512.67 1664,1504ZM1664,453L1664,428.5L1663.5,415.5L1660.5,403L1655,394L1646,386.5L1632,384L160,384C151.333,384 143.833,387.167 137.5,393.5C131.167,399.833 128,407.333 128,416C128,528 177,622.667 275,700C403.667,801.333 537.333,907 676,1017C680,1020.33 691.667,1030.17 711,1046.5C730.333,1062.83 745.667,1075.33 757,1084C768.333,1092.67 783.167,1103.17 801.5,1115.5C819.833,1127.83 836.667,1137 852,1143C867.333,1149 881.667,1152 895,1152L897,1152C910.333,1152 924.667,1149 940,1143C955.333,1137 972.167,1127.83 990.5,1115.5C1008.83,1103.17 1023.67,1092.67 1035,1084C1046.33,1075.33 1061.67,1062.83 1081,1046.5C1100.33,1030.17 1112,1020.33 1116,1017C1254.67,907 1388.33,801.333 1517,700C1553,671.333 1586.5,632.833 1617.5,584.5C1648.5,536.167 1664,492.333 1664,453ZM1792,416L1792,1504C1792,1548 1776.33,1585.67 1745,1617C1713.67,1648.33 1676,1664 1632,1664L160,1664C116,1664 78.333,1648.33 47,1617C15.667,1585.67 0,1548 0,1504L0,416C0,372 15.667,334.333 47,303C78.333,271.667 116,256 160,256L1632,256C1676,256 1713.67,271.667 1745,303C1776.33,334.333 1792,372 1792,416Z" style="fill-rule:nonzero;"/>
        </g>
    </g>
</svg>
