<svg viewBox="0 0 512 512" version="1.1" xmlns="http://www.w3.org/2000/svg">
    <path d="M401.434,101.247l-154.753,154.753l154.753,154.753c3.689,3.689 5.533,8.063 5.533,13.122c0,5.06 -1.844,9.434 -5.533,13.122l-48.374,48.375c-3.689,3.688 -8.063,5.533 -13.122,5.533c-5.06,0 -9.434,-1.845 -13.122,-5.533l-216.25,-216.25c-3.689,-3.689 -5.533,-8.063 -5.533,-13.122c0,-5.059 1.844,-9.433 5.533,-13.122l216.25,-216.25c3.688,-3.688 8.062,-5.533 13.122,-5.533c5.059,0 9.433,1.845 13.122,5.533l48.374,48.375c3.689,3.688 5.533,8.062 5.533,13.122c0,5.059 -1.844,9.433 -5.533,13.122l0,0Z"/>
</svg>