<?xml version="1.0" encoding="UTF-8" standalone="no"?>
<svg
   xmlns:dc="http://purl.org/dc/elements/1.1/"
   xmlns:cc="http://creativecommons.org/ns#"
   xmlns:rdf="http://www.w3.org/1999/02/22-rdf-syntax-ns#"
   xmlns:svg="http://www.w3.org/2000/svg"
   xmlns="http://www.w3.org/2000/svg"
   xmlns:sodipodi="http://sodipodi.sourceforge.net/DTD/sodipodi-0.dtd"
   xmlns:inkscape="http://www.inkscape.org/namespaces/inkscape"
   width="100%"
   height="100%"
   viewBox="0 0 31 31"
   version="1.1"
   xml:space="preserve"
   style="fill-rule:evenodd;clip-rule:evenodd;stroke-miterlimit:100;"
   id="svg29"
   sodipodi:docname="icon-whatsapp.svg"
   inkscape:version="0.92.1 r15371"><metadata
     id="metadata35"><rdf:RDF><cc:Work
         rdf:about=""><dc:format>image/svg+xml</dc:format><dc:type
           rdf:resource="http://purl.org/dc/dcmitype/StillImage" /><dc:title></dc:title></cc:Work></rdf:RDF></metadata><defs
     id="defs33" /><sodipodi:namedview
     pagecolor="#ffffff"
     bordercolor="#666666"
     borderopacity="1"
     objecttolerance="10"
     gridtolerance="10"
     guidetolerance="10"
     inkscape:pageopacity="0"
     inkscape:pageshadow="2"
     inkscape:window-width="1920"
     inkscape:window-height="1001"
     id="namedview31"
     showgrid="false"
     inkscape:zoom="22.627417"
     inkscape:cx="16.944382"
     inkscape:cy="9.117439"
     inkscape:window-x="-9"
     inkscape:window-y="-9"
     inkscape:window-maximized="1"
     inkscape:current-layer="svg29" /><path
     id="path4495"
     d="m 18.918598,16.728805 q 0.204801,0 1.536005,0.693172 1.331205,0.693172 1.409975,0.834956 0.03151,0.07877 0.03151,0.236309 0,0.519879 -0.267817,1.197297 -0.252061,0.614403 -1.118527,1.03188 -0.866465,0.41748 -1.606897,0.41748 -0.897975,0 -2.993243,-0.976744 Q 14.36572,19.454231 13.231438,18.304196 12.097159,17.154161 10.899863,15.389722 9.7655797,13.704054 9.7813343,12.333463 v -0.126028 q 0.047259,-1.433608 1.1657897,-2.4891189 0.378094,-0.3465853 0.819203,-0.3465853 0.09452,0 0.283569,0.023634 0.189048,0.023634 0.299324,0.023634 0.299327,0 0.417479,0.1023979 0.118154,0.102398 0.244185,0.4332328 0.126032,0.3150785 0.519882,1.3863445 0.393846,1.071267 0.393846,1.181545 0,0.33083 -0.543509,0.905848 -0.54351,0.575016 -0.54351,0.732557 0,0.11028 0.07877,0.236308 0.535635,1.150033 1.6069,2.158286 0.882219,0.834958 2.378839,1.591143 0.189047,0.110282 0.346585,0.110282 0.236308,0 0.850711,-0.764065 0.614404,-0.764064 0.819204,-0.764064 z m -3.198045,8.349571 q 2.000747,0 3.836076,-0.787695 1.835331,-0.787696 3.15866,-2.111024 1.323327,-1.323329 2.111024,-3.15866 0.787695,-1.83533 0.787695,-3.836075 0,-2.000747 -0.787695,-3.836075 Q 24.038616,9.5135158 22.715289,8.1901877 21.39196,6.8668595 19.556629,6.0791642 17.7213,5.2914689 15.720553,5.2914689 q -2.000744,0 -3.836075,0.7876953 -1.83533,0.7876953 -3.1586584,2.1110235 -1.3233281,1.3233281 -2.1110237,3.1586593 -0.787695,1.835328 -0.787695,3.836075 0,3.198042 1.8904687,5.797438 l -1.2445586,3.67066 3.812446,-1.21305 q 2.489117,1.638406 5.435096,1.638406 z m 0,-21.7718995 q 2.41035,0 4.608018,0.9452345 2.197671,0.9452346 3.788815,2.536379 1.591145,1.5911442 2.536379,3.788813 0.945236,2.19767 0.945236,4.608019 0,2.410349 -0.945236,4.608017 -0.945234,2.19767 -2.536379,3.788814 -1.591144,1.591147 -3.788815,2.536379 -2.197668,0.945235 -4.608018,0.945235 -3.072009,0 -5.7501742,-1.480866 l -6.5693794,2.111023 2.1425313,-6.380332 q -1.7014219,-2.804195 -1.7014219,-6.12827 0,-2.410349 0.9452343,-4.608019 Q 5.7325775,8.3792342 7.3237221,6.78809 8.9148667,5.1969456 11.112537,4.251711 13.310207,3.3064765 15.720553,3.3064765 Z"
     inkscape:connector-curvature="0"
     style="stroke-width:0.0157539" /></svg>