<?xml version="1.0" encoding="UTF-8" standalone="no"?><!DOCTYPE svg PUBLIC "-//W3C//DTD SVG 1.1//EN" "http://www.w3.org/Graphics/SVG/1.1/DTD/svg11.dtd"><svg width="100%" height="100%" viewBox="0 0 2134 2134" version="1.1" xmlns="http://www.w3.org/2000/svg" xmlns:xlink="http://www.w3.org/1999/xlink" xml:space="preserve" style="fill-rule:evenodd;clip-rule:evenodd;stroke-linejoin:round;stroke-miterlimit:1.41421;"><path id="Icon" d="M1392.95,1066.74c0,-90.092 -31.863,-167.002 -95.589,-230.728c-63.726,-63.726 -140.636,-95.589 -230.728,-95.589c-90.092,0 -167.002,31.863 -230.728,95.589c-63.726,63.726 -95.589,140.636 -95.589,230.728c0,90.092 31.863,167.002 95.589,230.728c63.726,63.726 140.636,95.589 230.728,95.589c90.092,0 167.002,-31.863 230.728,-95.589c63.726,-63.726 95.589,-140.636 95.589,-230.728Zm652.705,-138.922l0,282.984c0,10.185 -3.402,19.965 -10.208,29.341c-6.806,9.376 -15.301,14.896 -25.486,16.562l-235.868,35.694c-16.133,45.879 -32.696,84.548 -49.686,116.007c29.745,42.5 75.22,101.133 136.423,175.901c8.519,10.185 12.779,20.798 12.779,31.839c0,11.042 -3.831,20.822 -11.494,29.341c-22.939,31.458 -65.011,77.361 -126.214,137.708c-61.204,60.348 -101.158,90.521 -119.862,90.521c-10.185,0 -21.226,-3.831 -33.124,-11.493l-175.901,-137.709c-37.408,19.561 -76.077,35.718 -116.007,48.473c-13.611,115.602 -25.938,194.629 -36.979,237.081c-5.949,23.796 -21.25,35.694 -45.903,35.694l-282.984,0c-11.898,0 -22.321,-3.617 -31.268,-10.851c-8.948,-7.234 -13.826,-16.371 -14.635,-27.413l-35.694,-234.583c-41.644,-13.611 -79.884,-29.34 -114.722,-47.187l-179.756,136.423c-8.519,7.663 -19.132,11.494 -31.839,11.494c-11.898,0 -22.511,-4.664 -31.84,-13.992c-107.082,-96.898 -177.186,-168.287 -210.31,-214.166c-5.949,-8.519 -8.924,-18.299 -8.924,-29.341c0,-10.185 3.403,-19.965 10.209,-29.34c12.755,-17.848 34.433,-46.117 65.035,-84.81c30.602,-38.693 53.541,-68.652 68.818,-89.878c-22.939,-42.5 -40.358,-84.572 -52.256,-126.215l-233.298,-34.409c-11.041,-1.714 -19.965,-7.02 -26.77,-15.92c-6.806,-8.9 -10.209,-18.894 -10.209,-29.983l0,-282.984c0,-10.185 3.403,-19.965 10.209,-29.341c6.805,-9.376 14.872,-14.897 24.2,-16.562l237.082,-35.695c11.898,-39.073 28.46,-78.17 49.686,-117.291c-33.981,-48.449 -79.455,-107.083 -136.424,-175.901c-8.519,-10.185 -12.778,-20.394 -12.778,-30.626c0,-8.519 3.831,-18.299 11.493,-29.341c22.083,-30.601 63.941,-76.29 125.573,-137.066c61.632,-60.775 101.8,-91.163 120.504,-91.163c11.041,0 22.083,4.26 33.124,12.779l175.901,136.423c37.408,-19.56 76.077,-35.718 116.007,-48.473c13.611,-115.601 25.938,-194.628 36.979,-237.081c5.949,-23.796 21.25,-35.694 45.903,-35.694l282.984,0c11.898,0 22.321,3.617 31.268,10.851c8.948,7.234 13.826,16.372 14.635,27.413l35.694,234.583c41.643,13.611 79.884,29.341 114.722,47.188l181.041,-136.424c7.662,-7.662 17.871,-11.493 30.626,-11.493c11.041,0 21.654,4.259 31.839,12.778c109.653,101.134 179.756,173.379 210.31,216.736c5.95,6.805 8.924,16.157 8.924,28.055c0,10.185 -3.403,19.965 -10.209,29.341c-12.754,17.847 -34.433,46.117 -65.034,84.81c-30.602,38.692 -53.542,68.652 -68.819,89.878c22.083,42.5 39.502,84.143 52.256,124.93l233.298,35.694c11.042,1.713 19.965,7.02 26.771,15.92c6.806,8.9 10.208,18.894 10.208,29.983l0,0Z" style="fill-rule:nonzero;"/></svg>