<?xml version="1.0" encoding="UTF-8" standalone="no"?><!DOCTYPE svg PUBLIC "-//W3C//DTD SVG 1.1//EN" "http://www.w3.org/Graphics/SVG/1.1/DTD/svg11.dtd">
<svg width="100%" height="100%" viewBox="0 0 512 512" version="1.1" xmlns="http://www.w3.org/2000/svg" xml:space="preserve">
    <path d="M439.256,121.394c4.887,4.887 9.075,11.519 12.566,19.897c3.491,8.377 5.236,16.056 5.236,23.037l0,301.587c0,6.981 -2.444,12.915 -7.33,17.802c-4.887,4.887 -10.821,7.331 -17.802,7.331l-351.852,0c-6.981,0 -12.915,-2.444 -17.802,-7.331c-4.886,-4.887 -7.33,-10.821 -7.33,-17.802l0,-418.87c0,-6.981 2.444,-12.915 7.33,-17.802c4.887,-4.887 10.821,-7.331 17.802,-7.331l234.568,0c6.981,0 14.66,1.746 23.038,5.236c8.377,3.491 15.009,7.68 19.896,12.566l81.68,81.68Zm-116.237,-63.878l0,98.435l98.435,0c-1.745,-5.061 -3.665,-8.639 -5.76,-10.734l-81.941,-81.941c-2.094,-2.094 -5.672,-4.014 -10.734,-5.76Zm100.529,400.022l0,-268.077l-108.906,0c-6.981,0 -12.915,-2.444 -17.802,-7.331c-4.887,-4.886 -7.33,-10.82 -7.33,-17.802l0,-108.906l-201.058,0l0,402.116l335.096,0Zm-256.296,-61.26l0,27.75l73.564,0l0,-27.75l-19.635,0l26.965,-42.149c0.873,-1.221 1.745,-2.661 2.618,-4.319c0.873,-1.658 1.527,-2.836 1.964,-3.535c0.436,-0.698 0.741,-1.047 0.916,-1.047l0.523,0c0.175,0.698 0.611,1.571 1.309,2.618c0.349,0.698 0.742,1.353 1.178,1.964c0.437,0.61 0.96,1.309 1.571,2.094c0.611,0.785 1.178,1.527 1.702,2.225l28.012,42.149l-19.896,0l0,27.75l76.182,0l0,-27.75l-17.802,0l-50.265,-71.47l51.05,-73.826l17.54,0l0,-28.012l-73.04,0l0,28.012l19.372,0l-26.964,41.626c-0.699,1.221 -1.571,2.661 -2.618,4.319c-1.048,1.658 -1.833,2.836 -2.356,3.534l-0.524,0.786l-0.524,0c-0.174,-0.698 -0.611,-1.571 -1.309,-2.618c-1.047,-1.92 -2.53,-3.927 -4.45,-6.021l-27.75,-41.626l19.896,0l0,-28.012l-75.92,0l0,28.012l17.802,0l49.479,71.208l-50.788,74.088l-17.802,0Z" style="fill-rule:nonzero;"/>
</svg>