<?xml version="1.0" encoding="utf-8"?>
<!-- Generator: Adobe Illustrator 21.1.0, SVG Export Plug-In . SVG Version: 6.00 Build 0)  -->
<svg version="1.1" id="Слой_2" xmlns="http://www.w3.org/2000/svg" xmlns:xlink="http://www.w3.org/1999/xlink" x="0px" y="0px"
	 viewBox="0 0 827.381 382.81" style="enable-background:new 0 0 827.381 382.81;" xml:space="preserve">
<style type="text/css">
	.st0{fill:#FFFFFF;}
	.st1{fill:#3B424B;}
	.st2{fill:#646A71;}
	.st3{fill:#FFCC00;}
</style>
<g>
	<path class="st0" d="M766.576,260.603h22.442v61.764h-22.442V260.603z"/>
	<path class="st0" d="M827.381,250.82H642.473v-19.948L756.41,63.419v38.554l-86.507,128.514h96.673V60.351h22.442v170.137h38.362
		V250.82z"/>
</g>
<g id="shield">
	<g>
		<path class="st0" d="M556.113,0h-285.07c-7.313,0-13.241,5.927-13.241,13.241v213.807
			c0.007,86.303,144.231,151.86,150.372,154.607c1.721,0.77,3.564,1.155,5.409,1.155s3.69-0.385,5.408-1.155
			c6.142-2.749,150.361-68.304,150.361-154.609V13.241C569.354,5.927,563.427,0,556.113,0z M542.872,227.046
			c0,54.848-88.67,108.568-129.287,127.933c-40.618-19.365-129.294-73.083-129.299-127.933V26.482h258.588v200.564H542.872z"/>
		<path class="st1" d="M413.127,357.587c0,0-130.646-61.317-131.446-126.578l0.105-207.146H413.37h131.572l0.095,207.146
			c-0.79,65.261-131.436,126.578-131.436,126.578"/>
		<path class="st2" d="M545.352,231.435c-0.798,65.394-131.448,126.838-131.448,126.838l-0.326-334.409h131.67L545.352,231.435z"/>
	</g>
</g>
<g>
	<path class="st3" d="M124.103,259.337h22.442v61.764h-22.442V259.337z"/>
	<path class="st3" d="M184.908,249.555H0v-19.949L113.937,62.154v38.554L27.429,229.223h96.674V59.085h22.441v170.138h38.363
		V249.555z"/>
</g>
</svg>
