<?xml version="1.0" encoding="utf-8"?>
<!-- Generator: Adobe Illustrator 21.1.0, SVG Export Plug-In . SVG Version: 6.00 Build 0)  -->
<svg version="1.1" id="Слой_2" xmlns="http://www.w3.org/2000/svg" xmlns:xlink="http://www.w3.org/1999/xlink" x="0px" y="0px"
	 viewBox="0 0 2129.036 382.81" style="enable-background:new 0 0 2129.036 382.81;" xml:space="preserve">
<style type="text/css">
	.st0{fill:#FFFFFF;}
	.st1{fill:#3B424B;}
	.st2{fill:#646A71;}
	.st3{fill:#FFCC00;}
</style>
<g id="text--white">
	<g>
		<path class="st0" d="M2081.196,190.624c4.762,0,9.24-0.926,13.433-2.777c4.196-1.852,7.805-4.327,10.828-7.425
			c3.021-3.099,5.384-6.613,7.085-10.543c1.699-3.93,2.551-8.087,2.551-12.47c0-10.656-3.175-18.857-9.523-24.6
			c-6.348-5.744-14.474-8.616-24.374-8.616h-37.864v-12.017h39.225c7.104,0,13.529,1.115,19.272,3.344
			c5.743,2.23,10.618,5.366,14.623,9.409c4.005,4.043,7.105,8.805,9.296,14.284c2.193,5.48,3.288,11.544,3.288,18.195
			c0,5.744-1.094,11.317-3.288,16.721c-2.191,5.404-5.327,10.241-9.408,14.511c-4.081,4.27-8.995,7.69-14.738,10.26
			c-5.743,2.57-12.092,3.854-19.044,3.854h-39.225v-12.13H2081.196z"/>
		<path class="st0" d="M2024.514,112.175h13.264v154.857h-13.264V112.175z"/>
	</g>
	<g>
		<path class="st0" d="M1985.906,186.825c0,10.959-1.699,21.237-5.099,30.835c-3.401,9.598-8.238,17.968-14.51,25.111
			c-6.275,7.142-13.832,12.791-22.675,16.948c-8.843,4.157-18.667,6.5-29.474,7.029v-11.903c8.843-0.454,16.817-2.456,23.919-6.009
			c7.105-3.552,13.171-8.351,18.195-14.397c5.026-6.046,8.899-13.132,11.622-21.256c2.72-8.125,4.081-16.91,4.081-26.357
			c0-9.447-1.361-18.233-4.081-26.357c-2.722-8.125-6.596-15.172-11.622-21.143c-5.024-5.971-11.09-10.732-18.195-14.284
			c-7.102-3.552-15.076-5.555-23.919-6.008v-12.017c10.806,0.453,20.631,2.759,29.474,6.915c8.843,4.157,16.401,9.806,22.675,16.948
			c6.272,7.142,11.11,15.512,14.51,25.111C1984.207,165.588,1985.906,175.867,1985.906,186.825z"/>
		<path class="st0" d="M1835.47,186.825c0-11.11,1.702-21.464,5.102-31.062c3.401-9.598,8.277-17.968,14.625-25.111
			c6.348-7.142,13.999-12.792,22.957-16.948c8.956-4.157,19.025-6.386,30.211-6.689v11.79c-9.144,0.302-17.345,2.23-24.599,5.782
			c-7.256,3.552-13.453,8.351-18.591,14.398c-5.141,6.046-9.051,13.132-11.734,21.256c-2.683,8.125-4.025,16.986-4.025,26.584
			s1.342,18.497,4.025,26.697c2.683,8.2,6.593,15.323,11.734,21.369c5.139,6.046,11.335,10.808,18.591,14.284
			c7.254,3.476,15.455,5.366,24.599,5.668v11.903c-11.11-0.302-21.162-2.551-30.154-6.745c-8.995-4.194-16.665-9.863-23.013-17.005
			c-6.348-7.142-11.225-15.512-14.625-25.111C1837.171,208.289,1835.47,197.935,1835.47,186.825z"/>
	</g>
	<g>
		<path class="st0" d="M1696.799,232.888c2.343,2.796,5.026,5.479,8.05,8.049c3.023,2.57,6.348,4.894,9.976,6.972
			c3.628,2.079,7.614,3.817,11.959,5.215c4.345,1.398,9.051,2.173,14.114,2.324v12.017c-12.092-0.302-22.464-2.721-31.119-7.255
			c-8.652-4.535-15.852-10.316-21.595-17.345L1696.799,232.888z"/>
		<path class="st0" d="M1769.241,185.841c3.853,1.738,7.482,3.628,10.882,5.668c3.4,2.041,6.387,4.572,8.955,7.595
			c2.571,3.023,4.554,6.556,5.952,10.6c1.398,4.043,2.098,8.861,2.098,14.454c0,4.761-0.774,9.617-2.323,14.568
			c-1.55,4.95-4.213,9.523-7.993,13.717c-3.778,4.194-8.919,7.671-15.416,10.43c-6.5,2.759-14.738,4.289-24.714,4.591v-12.017
			c7.406-0.151,13.529-1.266,18.364-3.344c4.837-2.079,8.654-4.629,11.45-7.652c2.798-3.023,4.725-6.311,5.783-9.863
			c1.058-3.552,1.587-7.029,1.587-10.43c0-4.761-1.001-9.164-3.004-13.207c-2.003-4.043-4.705-7.463-8.106-10.26
			s-7.386-4.969-11.959-6.519c-4.573-1.549-9.352-2.324-14.341-2.324h-31.741v-12.13h31.741c4.762,0,9.296-0.605,13.604-1.814
			c4.309-1.209,8.05-3.099,11.223-5.668c3.175-2.57,5.687-5.782,7.54-9.636c1.851-3.854,2.776-8.427,2.776-13.717
			c0-4.157-0.889-7.992-2.664-11.507c-1.777-3.514-4.252-6.537-7.425-9.069c-3.175-2.532-6.896-4.497-11.166-5.895
			c-4.272-1.398-8.823-2.173-13.661-2.324v-12.017c6.649,0.151,12.924,1.228,18.819,3.231c5.895,2.003,11.015,4.78,15.36,8.332
			c4.346,3.552,7.746,7.803,10.204,12.754c2.455,4.95,3.684,10.448,3.684,16.495c0,9.749-2.287,17.685-6.86,23.807
			C1783.316,178.812,1777.1,183.196,1769.241,185.841z"/>
		<path class="st0" d="M1691.925,129.612c5.592-6.5,12.451-11.601,20.577-15.304c8.123-3.703,17.59-5.782,28.396-6.235v12.017
			c-8.01,0.453-15.416,2.267-22.22,5.442c-6.801,3.174-12.772,7.784-17.911,13.831L1691.925,129.612z"/>
	</g>
	<g>
		<path class="st0" d="M1649.16,296.482h-11.563v-29.248h-58.044v-12.017h41.039l-40.814-113.592l6.463-18.592l48.293,132.184
			h14.625V296.482z"/>
		<path class="st0" d="M1573.771,255.217v12.017h-58.042v29.248h-11.678v-41.265h14.625l52.034-142.841h13.264l-51.356,142.841
			H1573.771z"/>
	</g>
	<g>
		<path class="st0" d="M1465.409,267.369h-15.306l-52.94-132.751l7.254-18.592L1465.409,267.369z"/>
		<path class="st0" d="M1421.991,213.067l5.1,12.697h-66.319l4.877-12.697H1421.991z"/>
		<path class="st0" d="M1337.533,267.369h-15.306l63.371-154.857h13.945L1337.533,267.369z"/>
	</g>
	<g>
		<path class="st0" d="M1270.159,112.511h13.037v154.857h-13.037V112.511z"/>
		<path class="st0" d="M1159.173,200.03h13.037v67.339h-13.037V200.03z"/>
		<path class="st0" d="M1172.21,182.118h92.167v12.13h-105.203v-81.737h13.037V182.118z"/>
	</g>
</g>
<g id="shield">
	<g>
		<path class="st0" d="M1071.261,0h-285.07c-7.313,0-13.241,5.927-13.241,13.241v213.807
			c0.007,86.303,144.231,151.86,150.372,154.607c1.721,0.77,3.564,1.155,5.409,1.155s3.69-0.385,5.408-1.155
			c6.142-2.749,150.361-68.304,150.361-154.609V13.241C1084.502,5.927,1078.575,0,1071.261,0z M1058.02,227.046
			c0,54.848-88.67,108.568-129.287,127.933c-40.618-19.365-129.294-73.083-129.299-127.933V26.482h258.588v200.564H1058.02z"/>
		<path class="st1" d="M928.275,357.587c0,0-130.646-61.317-131.446-126.578l0.105-207.146h131.583h131.572l0.095,207.146
			c-0.79,65.261-131.436,126.578-131.436,126.578"/>
		<path class="st2" d="M1060.5,231.435c-0.798,65.394-131.448,126.838-131.448,126.838l-0.326-334.409h131.67L1060.5,231.435z"/>
	</g>
</g>
<g id="text--yellow">
	<g>
		<path class="st3" d="M652.49,191.64c4.759,0,9.24-0.926,13.433-2.777c4.194-1.852,7.802-4.327,10.826-7.425
			c3.024-3.099,5.386-6.613,7.085-10.543c1.702-3.93,2.551-8.087,2.551-12.47c0-10.656-3.173-18.856-9.523-24.6
			c-6.348-5.744-14.471-8.616-24.372-8.616h-37.866v-12.017h39.225c7.105,0,13.529,1.115,19.272,3.344
			c5.743,2.23,10.62,5.366,14.625,9.409c4.005,4.043,7.105,8.805,9.296,14.284c2.191,5.48,3.288,11.544,3.288,18.195
			c0,5.744-1.097,11.318-3.288,16.722c-2.191,5.404-5.33,10.241-9.411,14.511c-4.081,4.27-8.992,7.69-14.736,10.26
			c-5.743,2.57-12.094,3.854-19.047,3.854h-39.225v-12.13H652.49z"/>
		<path class="st3" d="M595.808,113.191h13.264v154.857h-13.264V113.191z"/>
	</g>
	<g>
		<path class="st3" d="M477.374,256.032h79.129v12.017h-79.129V256.032z"/>
		<path class="st3" d="M477.374,182.571h77.542v12.13h-77.542V182.571z"/>
		<path class="st3" d="M477.374,113.191h79.129v12.017h-79.129V113.191z"/>
		<path class="st3" d="M458.327,113.191h13.264v154.857h-13.264V113.191z"/>
	</g>
	<g>
		<path class="st3" d="M334.444,177.469h38.997c6.955,0,13.264,1.285,18.934,3.855c5.668,2.57,10.466,5.989,14.395,10.259
			c3.932,4.27,6.972,9.107,9.127,14.511c2.154,5.404,3.232,10.978,3.232,16.721c0,6.651-1.04,12.716-3.119,18.195
			c-2.078,5.48-5.082,10.241-9.012,14.284c-3.929,4.043-8.73,7.18-14.398,9.409c-5.668,2.23-12.055,3.344-19.16,3.344h-38.997
			v-12.017h37.638c9.9,0,18.024-2.872,24.374-8.616c6.348-5.744,9.521-13.944,9.521-24.6c0-4.308-0.85-8.446-2.551-12.414
			c-1.699-3.968-4.062-7.501-7.085-10.6c-3.024-3.099-6.632-5.574-10.826-7.425c-4.194-1.852-8.672-2.777-13.433-2.777h-37.638
			V177.469z"/>
		<path class="st3" d="M334.444,113.191h73.801v12.017h-73.801V113.191z"/>
		<path class="st3" d="M315.4,113.191h13.264v154.857H315.4V113.191z"/>
	</g>
	<g>
		<path class="st3" d="M263.248,267.98V145.431l13.264-19.045V267.98H263.248z"/>
		<path class="st3" d="M260.866,113.122h16.78L168.248,267.98h-18.365L260.866,113.122z"/>
		<path class="st3" d="M163.09,113.122v125.382l-13.15,17.685V113.122H163.09z"/>
	</g>
	<g>
		<path class="st3" d="M43.192,190.733l68.246,77.315H94.434l-59.857-68.473L43.192,190.733z"/>
		<path class="st3" d="M87.972,113.191h17.005l-85.931,94.547v-18.592L87.972,113.191z"/>
		<path class="st3" d="M0,113.191h13.264v154.857H0V113.191z"/>
	</g>
</g>
</svg>
