<?xml version="1.0" encoding="UTF-8" standalone="no"?><!DOCTYPE svg PUBLIC "-//W3C//DTD SVG 1.1//EN" "http://www.w3.org/Graphics/SVG/1.1/DTD/svg11.dtd"><svg width="100%" height="100%" viewBox="0 0 684 110" version="1.1" xmlns="http://www.w3.org/2000/svg" xmlns:xlink="http://www.w3.org/1999/xlink" xml:space="preserve" style="fill-rule:evenodd;clip-rule:evenodd;stroke-linejoin:round;stroke-miterlimit:1.41421;">
    <g>
        <path d="M481.313,78.855c-5.55,3.134 -11.716,4.701 -18.498,4.701c-7.888,0 -14.266,-2.543 -19.134,-7.63c-4.869,-5.087 -7.303,-11.818 -7.303,-20.194c0,-8.555 2.704,-15.575 8.112,-21.061c5.408,-5.485 12.261,-8.227 20.56,-8.227c6.012,0 11.06,0.976 15.145,2.928l0,7.168c-4.47,-2.826 -9.763,-4.239 -15.877,-4.239c-6.192,0 -11.266,2.133 -15.223,6.398c-3.956,4.264 -5.934,9.788 -5.934,16.571c0,6.988 1.836,12.48 5.51,16.475c3.674,3.995 8.659,5.992 14.953,5.992c4.316,0 8.054,-0.86 11.214,-2.582l0,-15.492l-12.1,0l0,-5.858l18.575,0l0,25.05Z" style="fill:#fff;fill-rule:nonzero;"/>
        <path d="M534.572,60.28c0,15.517 -7.001,23.276 -21.003,23.276c-13.411,0 -20.117,-7.463 -20.117,-22.39l0,-33.797l6.474,0l0,33.373c0,11.33 4.779,16.995 14.336,16.995c9.224,0 13.835,-5.472 13.835,-16.417l0,-33.951l6.475,0l0,32.911Z" style="fill:#fff;fill-rule:nonzero;"/>
        <rect x="548.368" y="27.369" width="6.474" height="55.263" style="fill:#fff;fill-rule:nonzero;"/>
        <path d="M569.371,82.631l0,-55.262l15.261,0c19.475,0 29.212,8.979 29.212,26.937c0,8.53 -2.704,15.383 -8.112,20.56c-5.409,5.177 -12.647,7.765 -21.716,7.765l-14.645,0Zm6.475,-49.405l0,43.548l8.247,0c7.245,0 12.884,-1.94 16.918,-5.819c4.033,-3.88 6.05,-9.378 6.05,-16.495c0,-14.156 -7.528,-21.234 -22.583,-21.234l-8.632,0Z" style="fill:#fff;fill-rule:nonzero;"/>
        <path d="M654,82.631l-29.289,0l0,-55.262l28.056,0l0,5.857l-21.581,0l0,18.383l19.962,0l0,5.819l-19.962,0l0,19.346l22.814,0l0,5.857Z" style="fill:#fff;fill-rule:nonzero;"/>
    </g>
    <g>
        <path d="M373.542,11.01c-5.203,-5.202 -13.634,-5.202 -18.837,0l-74.93,74.93l0,18.837l18.833,0l74.934,-74.934c5.199,-5.202 5.199,-13.633 0,-18.833Z" style="fill:#f6bb42;fill-rule:nonzero;"/>
        <path d="M370.4,32.981l3.142,-3.138c5.199,-5.202 5.199,-13.633 0,-18.833c-5.203,-5.202 -13.634,-5.202 -18.837,0l-3.138,3.138l18.833,18.833Z" style="fill:#87c0ec;fill-rule:nonzero;"/>
        <path d="M359.43,22.011l-63.947,63.942l0,0.004c-0.868,0.865 -0.868,2.269 0,3.138c0.869,0.865 2.273,0.865 3.138,0l63.946,-63.947l-3.137,-3.137Z" style="fill:#ffce54;fill-rule:nonzero;"/>
        <path d="M279.775,85.94l0,18.837l18.833,0l-18.833,-18.837Z" style="fill:#ffe5ab;fill-rule:nonzero;"/>
        <path d="M357.859,45.552l-18.837,-18.833l12.558,-12.558l18.837,18.837l-12.558,12.554Z" style="fill:#e6e9ed;fill-rule:nonzero;"/>
        <path d="M350.01,22.011l-3.138,-3.142c-0.007,-0.003 -0.01,-0.006 -0.016,-0.013l-3.138,3.138l3.154,3.154c0.865,0.869 2.273,0.869 3.138,0c0.868,-0.865 0.868,-2.273 0,-3.137Z" style="fill:#ccd1d9;fill-rule:nonzero;"/>
        <path d="M359.4,37.677l3.138,3.141c0.007,0.003 0.01,0.006 0.017,0.013l3.137,-3.138c-0.003,-0.006 -0.01,-0.01 -0.013,-0.016l-3.141,-3.138c-0.865,-0.868 -2.269,-0.868 -3.138,0c-0.868,0.868 -0.868,2.273 0,3.138Z" style="fill:#ccd1d9;fill-rule:nonzero;"/>
        <path d="M279.775,98.498l0,6.279l6.276,0l-6.276,-6.279Z" style="fill:#656d78;fill-rule:nonzero;"/>
        <path d="M275.333,24.641l18.834,-18.833l84.577,84.574l-18.836,18.833l-84.575,-84.574Z" style="fill:#ccd1d9;fill-rule:nonzero;"/>
        <path d="M278.471,21.503l18.837,-18.836l84.574,84.574l-18.833,18.836l-84.578,-84.574Z" style="fill:#e6e9ed;fill-rule:nonzero;"/>
        <path d="M305.108,16.74l3.138,-3.135l-3.141,-3.141l-3.138,3.141c-0.868,0.868 -0.868,2.273 0,3.138c0.865,0.868 2.27,0.868 3.138,0c0,0 0.003,0 0.003,-0.003Z" style="fill:#656d78;fill-rule:nonzero;"/>
        <path d="M314.522,26.163l3.141,-3.141l-3.141,-3.138l-3.138,3.138c-0.868,0.868 -0.868,2.273 0,3.137c0.868,0.869 2.273,0.869 3.138,0.004Z" style="fill:#656d78;fill-rule:nonzero;"/>
        <path d="M323.942,35.576l3.137,-3.138l-3.137,-3.138l-3.141,3.138c-0.865,0.868 -0.865,2.273 0,3.141c0.868,0.865 2.272,0.865 3.141,0c0,0 0,0 0,-0.003Z" style="fill:#656d78;fill-rule:nonzero;"/>
        <path d="M333.358,44.996l3.138,-3.138l-3.138,-3.141l-3.138,3.138l0,0.003c-0.868,0.865 -0.868,2.27 0,3.138c0.865,0.868 2.27,0.868 3.138,0Z" style="fill:#656d78;fill-rule:nonzero;"/>
        <path d="M342.778,54.413l3.138,-3.138l-3.141,-3.141l-3.138,3.141c-0.868,0.868 -0.868,2.273 0,3.138c0.865,0.868 2.269,0.868 3.138,0l0.003,0Z" style="fill:#656d78;fill-rule:nonzero;"/>
        <path d="M352.195,63.829l3.138,-3.137l-3.142,-3.138l-3.138,3.138c-0.867,0.868 -0.867,2.272 0,3.137c0.869,0.868 2.273,0.868 3.138,0l0.004,0Z" style="fill:#656d78;fill-rule:nonzero;"/>
        <path d="M361.611,73.246l3.138,-3.138l-3.138,-3.137l-3.141,3.137c-0.864,0.869 -0.864,2.273 0,3.141c0.869,0.865 2.273,0.865 3.141,0l0,-0.003Z" style="fill:#656d78;fill-rule:nonzero;"/>
        <path d="M371.028,82.666l3.138,-3.141l-3.138,-3.138l-3.137,3.138l-0.004,0.003c-0.865,0.865 -0.865,2.27 0,3.138c0.868,0.868 2.273,0.868 3.141,0Z" style="fill:#656d78;fill-rule:nonzero;"/>
    </g>
    <g>
        <path d="M30,80.412l0,-7.635c0.874,0.771 1.922,1.465 3.143,2.082c1.221,0.617 2.506,1.138 3.856,1.562c1.35,0.424 2.706,0.752 4.068,0.983c1.363,0.232 2.622,0.348 3.779,0.348c3.985,0 6.961,-0.74 8.927,-2.218c1.967,-1.478 2.95,-3.605 2.95,-6.382c0,-1.491 -0.327,-2.789 -0.983,-3.895c-0.655,-1.105 -1.562,-2.114 -2.719,-3.027c-1.156,-0.912 -2.525,-1.786 -4.106,-2.622c-1.581,-0.835 -3.285,-1.716 -5.11,-2.641c-1.928,-0.977 -3.727,-1.967 -5.399,-2.97c-1.671,-1.002 -3.123,-2.108 -4.357,-3.316c-1.234,-1.208 -2.204,-2.577 -2.911,-4.107c-0.707,-1.529 -1.061,-3.323 -1.061,-5.379c0,-2.52 0.553,-4.711 1.658,-6.575c1.106,-1.864 2.558,-3.4 4.358,-4.608c1.799,-1.208 3.85,-2.108 6.15,-2.699c2.301,-0.592 4.647,-0.887 7.038,-0.887c5.45,0 9.422,0.655 11.916,1.966l0,7.288c-3.265,-2.262 -7.456,-3.393 -12.572,-3.393c-1.414,0 -2.827,0.148 -4.241,0.444c-1.414,0.295 -2.674,0.777 -3.779,1.446c-1.106,0.668 -2.006,1.529 -2.7,2.583c-0.694,1.054 -1.041,2.34 -1.041,3.856c0,1.414 0.264,2.635 0.791,3.664c0.527,1.028 1.304,1.966 2.333,2.815c1.028,0.848 2.281,1.671 3.759,2.468c1.479,0.797 3.182,1.671 5.11,2.622c1.979,0.977 3.856,2.005 5.63,3.085c1.774,1.08 3.329,2.275 4.666,3.586c1.337,1.311 2.397,2.764 3.181,4.358c0.784,1.594 1.176,3.419 1.176,5.475c0,2.726 -0.533,5.033 -1.6,6.922c-1.067,1.89 -2.507,3.426 -4.319,4.608c-1.812,1.183 -3.901,2.038 -6.266,2.565c-2.365,0.527 -4.859,0.79 -7.481,0.79c-0.874,0 -1.954,-0.07 -3.239,-0.212c-1.286,-0.141 -2.597,-0.347 -3.934,-0.617c-1.337,-0.27 -2.603,-0.604 -3.798,-1.002c-1.196,-0.399 -2.153,-0.842 -2.873,-1.331Z" style="fill:#fc0;fill-rule:nonzero;"/>
        <path d="M107.239,33.213l-15.964,0l0,49.436l-6.479,0l0,-49.436l-15.926,0l0,-5.862l38.369,0l0,5.862Z" style="fill:#fc0;fill-rule:nonzero;"/>
        <path d="M152.974,27.351l-18.24,34.86l0,20.438l-6.478,0l0,-20.284l-17.777,-35.014l7.365,0l12.378,24.988c0.155,0.309 0.604,1.44 1.35,3.394l0.116,0c0.257,-0.874 0.745,-2.006 1.465,-3.394l12.957,-24.988l6.864,0Z" style="fill:#fc0;fill-rule:nonzero;"/>
        <path d="M189.376,82.649l-28.69,0l0,-55.298l6.479,0l0,49.436l22.211,0l0,5.862Z" style="fill:#fc0;fill-rule:nonzero;"/><path d="M227.167,82.649l-29.307,0l0,-55.298l28.073,0l0,5.862l-21.595,0l0,18.394l19.975,0l0,5.822l-19.975,0l0,19.358l22.829,0l0,5.862Z" style="fill:#fc0;fill-rule:nonzero;"/>
    </g>
</svg>