<?xml version="1.0" encoding="UTF-8" standalone="no"?>
<svg
   xmlns:dc="http://purl.org/dc/elements/1.1/"
   xmlns:cc="http://creativecommons.org/ns#"
   xmlns:rdf="http://www.w3.org/1999/02/22-rdf-syntax-ns#"
   xmlns:svg="http://www.w3.org/2000/svg"
   xmlns="http://www.w3.org/2000/svg"
   xmlns:sodipodi="http://sodipodi.sourceforge.net/DTD/sodipodi-0.dtd"
   xmlns:inkscape="http://www.inkscape.org/namespaces/inkscape"
   width="100%"
   height="100%"
   viewBox="0 0 31 31"
   version="1.1"
   xml:space="preserve"
   style="fill-rule:evenodd;clip-rule:evenodd;stroke-miterlimit:100;"
   id="svg29"
   sodipodi:docname="icon--bars.svg"
   inkscape:version="0.92.1 r15371"><metadata
     id="metadata35"><rdf:RDF><cc:Work
         rdf:about=""><dc:format>image/svg+xml</dc:format><dc:type
           rdf:resource="http://purl.org/dc/dcmitype/StillImage" /><dc:title></dc:title></cc:Work></rdf:RDF></metadata><defs
     id="defs33" /><sodipodi:namedview
     pagecolor="#ffffff"
     bordercolor="#666666"
     borderopacity="1"
     objecttolerance="10"
     gridtolerance="10"
     guidetolerance="10"
     inkscape:pageopacity="0"
     inkscape:pageshadow="2"
     inkscape:window-width="1920"
     inkscape:window-height="1001"
     id="namedview31"
     showgrid="false"
     inkscape:zoom="21.532542"
     inkscape:cx="10.643153"
     inkscape:cy="15.349675"
     inkscape:window-x="-9"
     inkscape:window-y="-9"
     inkscape:window-maximized="1"
     inkscape:current-layer="svg29" /><path
     id="path4495"
     d="m 29.575758,23.710859 v 2.34596 q 0,0.476523 -0.348228,0.824751 -0.348228,0.348229 -0.824752,0.348229 H 2.5972218 q -0.4765232,0 -0.8247516,-0.348229 -0.3482283,-0.348228 -0.3482283,-0.824751 v -2.34596 q 0,-0.476523 0.3482283,-0.824752 0.3482284,-0.348228 0.8247516,-0.348228 H 28.402778 q 0.476524,0 0.824752,0.348228 0.348228,0.348229 0.348228,0.824752 z m 0,-9.383839 v 2.34596 q 0,0.476523 -0.348228,0.824751 -0.348228,0.348229 -0.824752,0.348229 H 2.5972218 q -0.4765232,0 -0.8247516,-0.348229 Q 1.4242419,17.149503 1.4242419,16.67298 v -2.34596 q 0,-0.476523 0.3482283,-0.824752 Q 2.1206986,13.15404 2.5972218,13.15404 H 28.402778 q 0.476524,0 0.824752,0.348228 0.348228,0.348229 0.348228,0.824752 z m 0,-9.3838387 v 2.3459596 q 0,0.4765231 -0.348228,0.8247515 -0.348228,0.3482285 -0.824752,0.3482285 H 2.5972218 q -0.4765232,0 -0.8247516,-0.3482285 Q 1.4242419,7.765664 1.4242419,7.2891409 V 4.9431813 q 0,-0.4765229 0.3482283,-0.8247512 Q 2.1206986,3.7702012 2.5972218,3.7702012 H 28.402778 q 0.476524,0 0.824752,0.3482289 0.348228,0.3482283 0.348228,0.8247512 z"
     inkscape:connector-curvature="0"
     style="stroke-width:0.01832781;fill:#ffffff;fill-opacity:1" /></svg>