<?xml version="1.0" encoding="UTF-8" standalone="no"?>
<!DOCTYPE svg PUBLIC "-//W3C//DTD SVG 1.1//EN" "http://www.w3.org/Graphics/SVG/1.1/DTD/svg11.dtd">
<svg width="100%" height="100%" viewBox="0 0 2134 2134" version="1.1" xmlns="http://www.w3.org/2000/svg" xmlns:xlink="http://www.w3.org/1999/xlink" xml:space="preserve" style="fill-rule:evenodd;clip-rule:evenodd;stroke-linejoin:round;stroke-miterlimit:1.41421;">
    <g transform="matrix(72.4606,0,0,72.4606,86.4919,-106.29)">
        <g id="Icon">
            <path d="M6.482,27.429L8.107,25.804L3.911,21.608L2.286,23.233L2.286,25.144L4.572,25.144L4.572,27.43L6.483,27.43L6.482,27.429ZM15.821,10.857C15.821,10.595 15.69,10.464 15.428,10.464C15.309,10.464 15.207,10.506 15.124,10.589L5.445,20.268C5.362,20.351 5.32,20.453 5.32,20.572C5.32,20.834 5.451,20.965 5.713,20.965C5.832,20.965 5.934,20.923 6.017,20.84L15.696,11.161C15.779,11.078 15.821,10.976 15.821,10.857L15.821,10.857ZM14.857,7.429L22.286,14.858L7.429,29.715L0,29.715L0,22.286L14.857,7.429ZM27.054,9.143C27.054,9.774 26.834,10.309 26.393,10.75L23.429,13.714L16,6.285L18.964,3.339C19.393,2.886 19.928,2.66 20.571,2.66C21.202,2.66 21.743,2.886 22.196,3.339L26.392,7.518C26.833,7.982 27.053,8.524 27.053,9.143L27.054,9.143Z" style="fill-rule:nonzero;"/>
        </g>
    </g>
</svg>
