<?xml version="1.0" encoding="UTF-8" standalone="no"?><!DOCTYPE svg PUBLIC "-//W3C//DTD SVG 1.1//EN" "http://www.w3.org/Graphics/SVG/1.1/DTD/svg11.dtd"><svg width="100%" height="100%" viewBox="0 0 512 512" version="1.1" xmlns="http://www.w3.org/2000/svg" xmlns:xlink="http://www.w3.org/1999/xlink" xml:space="preserve" style="fill-rule:evenodd;clip-rule:evenodd;stroke-linejoin:round;stroke-miterlimit:1.41421;"><path d="M490.091,224.073l0,63.854c0,8.864 -3.103,16.399 -9.31,22.606c-6.207,6.207 -13.743,9.311 -22.607,9.311l-404.348,0c-8.864,0 -16.4,-3.104 -22.607,-9.311c-6.207,-6.207 -9.31,-13.742 -9.31,-22.606l0,-63.854c0,-8.864 3.103,-16.399 9.31,-22.606c6.207,-6.207 13.743,-9.311 22.607,-9.311l404.348,0c8.864,0 16.4,3.104 22.607,9.311c6.207,6.207 9.31,13.742 9.31,22.606l0,0Z" style="fill-rule:nonzero;"/></svg>