<?xml version="1.0" encoding="utf-8"?>
<!-- Generator: Adobe Illustrator 21.1.0, SVG Export Plug-In . SVG Version: 6.00 Build 0)  -->
<svg version="1.1" id="Слой_1" xmlns="http://www.w3.org/2000/svg" xmlns:xlink="http://www.w3.org/1999/xlink" x="0px" y="0px"
	 viewBox="0 0 864.676 369.443" style="enable-background:new 0 0 864.676 369.443;" xml:space="preserve">
<style type="text/css">
	.st0{fill:#FFFFFF;}
	.st1{fill-rule:evenodd;clip-rule:evenodd;fill:#3B424B;}
	.st2{fill:#646A71;}
	.st3{fill:#FFCC00;}
</style>
<g>
	<path class="st0" d="M791.894,267.232h26.863v73.93h-26.863V267.232z"/>
	<path class="st0" d="M864.676,255.522H643.345v-23.878l136.38-200.437v46.148l-103.547,153.83h115.716V27.533h26.863v203.652
		h45.919V255.522z"/>
</g>
<g>
	<path class="st0" d="M559.307,219.118c0,52.933-85.575,104.777-124.773,123.466c-39.2-18.689-124.779-70.531-124.784-123.466
		V25.557h249.558L559.307,219.118L559.307,219.118z M572.085,0H296.969c-7.057,0-12.778,5.72-12.778,12.779V219.12
		c0.006,83.289,139.195,146.558,145.121,149.209c1.661,0.743,3.44,1.114,5.22,1.114c1.781,0,3.561-0.371,5.219-1.114
		c5.928-2.653,145.111-65.919,145.111-149.211V12.779C584.864,5.72,579.144,0,572.085,0z"/>
	<path class="st1" d="M434.317,25.557h124.991l0.099,196.782c-0.758,61.996-124.87,120.245-124.87,120.245l-0.22-224.805
		l-0.22,224.805c0,0-124.113-58.249-124.87-120.245l0.098-196.782H434.317z"/>
	<path class="st2" d="M559.407,222.339c-0.758,61.996-124.87,120.245-124.87,120.245l-0.31-317.027h125.081L559.407,222.339z"/>
</g>
<g>
	<path class="st3" d="M148.549,265.717h26.863v73.93h-26.863V265.717z"/>
	<path class="st3" d="M221.331,254.008H0V230.13L136.38,29.692v46.149L32.832,229.67h115.717V26.019h26.862V229.67h45.92V254.008z"
		/>
</g>
</svg>
