<?xml version="1.0" encoding="UTF-8" standalone="no"?>
<svg
   xmlns:dc="http://purl.org/dc/elements/1.1/"
   xmlns:cc="http://creativecommons.org/ns#"
   xmlns:rdf="http://www.w3.org/1999/02/22-rdf-syntax-ns#"
   xmlns:svg="http://www.w3.org/2000/svg"
   xmlns="http://www.w3.org/2000/svg"
   xmlns:sodipodi="http://sodipodi.sourceforge.net/DTD/sodipodi-0.dtd"
   xmlns:inkscape="http://www.inkscape.org/namespaces/inkscape"
   width="100%"
   height="100%"
   viewBox="0 0 31 31"
   version="1.1"
   xml:space="preserve"
   style="fill-rule:evenodd;clip-rule:evenodd;stroke-miterlimit:100;"
   id="svg29"
   sodipodi:docname="icon-ellipsis-v.svg"
   inkscape:version="0.92.1 r15371"><metadata
     id="metadata35"><rdf:RDF><cc:Work
         rdf:about=""><dc:format>image/svg+xml</dc:format><dc:type
           rdf:resource="http://purl.org/dc/dcmitype/StillImage" /><dc:title></dc:title></cc:Work></rdf:RDF></metadata><defs
     id="defs33" /><sodipodi:namedview
     pagecolor="#ffffff"
     bordercolor="#666666"
     borderopacity="1"
     objecttolerance="10"
     gridtolerance="10"
     guidetolerance="10"
     inkscape:pageopacity="0"
     inkscape:pageshadow="2"
     inkscape:window-width="1920"
     inkscape:window-height="1001"
     id="namedview31"
     showgrid="false"
     inkscape:zoom="16"
     inkscape:cx="8.5882421"
     inkscape:cy="16.770652"
     inkscape:window-x="-9"
     inkscape:window-y="-9"
     inkscape:window-maximized="1"
     inkscape:current-layer="svg29" /><path
     id="path4495"
     d="m 19.350639,23.843051 v 3.850639 q 0,0.802214 -0.561552,1.363766 -0.561551,0.561552 -1.363769,0.561552 h -3.850637 q -0.802217,0 -1.363768,-0.561552 -0.561552,-0.561552 -0.561552,-1.363766 v -3.850639 q 0,-0.802218 0.561552,-1.363769 0.561551,-0.56155 1.363768,-0.56155 h 3.850637 q 0.802218,0 1.363769,0.56155 0.561552,0.561551 0.561552,1.363769 z m 0,-10.268369 v 3.850636 q 0,0.802218 -0.561552,1.363769 -0.561551,0.561552 -1.363769,0.561552 h -3.850637 q -0.802217,0 -1.363768,-0.561552 -0.561552,-0.561551 -0.561552,-1.363769 v -3.850636 q 0,-0.802218 0.561552,-1.363769 0.561551,-0.561552 1.363768,-0.561552 h 3.850637 q 0.802218,0 1.363769,0.561552 0.561552,0.561551 0.561552,1.363769 z m 0,-10.2683706 v 3.8506385 q 0,0.8022169 -0.561552,1.363768 -0.561551,0.5615512 -1.363769,0.5615512 h -3.850637 q -0.802217,0 -1.363768,-0.5615512 -0.561552,-0.5615511 -0.561552,-1.363768 V 3.3063114 q 0,-0.8022164 0.561552,-1.363768 0.561551,-0.5615514 1.363768,-0.5615514 h 3.850637 q 0.802218,0 1.363769,0.5615514 0.561552,0.5615516 0.561552,1.363768 z"
     inkscape:connector-curvature="0"
     style="stroke-width:0.0200554" /></svg>