<?xml version="1.0" encoding="UTF-8" standalone="no"?>
<!DOCTYPE svg PUBLIC "-//W3C//DTD SVG 1.1//EN" "http://www.w3.org/Graphics/SVG/1.1/DTD/svg11.dtd">
<svg width="100%" height="100%" viewBox="0 0 2134 2134" version="1.1" xmlns="http://www.w3.org/2000/svg" xmlns:xlink="http://www.w3.org/1999/xlink" xml:space="preserve" style="fill-rule:evenodd;clip-rule:evenodd;stroke-linejoin:round;stroke-miterlimit:1.41421;">
    <g transform="matrix(61.0429,0,0,61.0429,159.783,89.9805)">
        <g id="Icon">
            <path d="M2.286,29.714L7.429,29.714L7.429,24.571L2.286,24.571L2.286,29.714ZM8.571,29.714L14.285,29.714L14.285,24.571L8.571,24.571L8.571,29.714ZM2.286,23.429L7.429,23.429L7.429,17.715L2.286,17.715L2.286,23.429ZM8.571,23.429L14.285,23.429L14.285,17.715L8.571,17.715L8.571,23.429ZM2.286,16.571L7.429,16.571L7.429,11.428L2.286,11.428L2.286,16.571ZM15.429,29.714L21.143,29.714L21.143,24.571L15.429,24.571L15.429,29.714ZM8.571,16.571L14.285,16.571L14.285,11.428L8.571,11.428L8.571,16.571ZM22.286,29.714L27.429,29.714L27.429,24.571L22.286,24.571L22.286,29.714ZM15.429,23.429L21.143,23.429L21.143,17.715L15.429,17.715L15.429,23.429ZM9.143,8L9.143,2.857C9.143,2.702 9.086,2.568 8.973,2.455C8.86,2.342 8.726,2.285 8.571,2.285L7.428,2.285C7.273,2.285 7.139,2.342 7.026,2.455C6.913,2.568 6.856,2.702 6.856,2.857L6.856,8C6.856,8.155 6.913,8.289 7.026,8.402C7.139,8.515 7.273,8.572 7.428,8.572L8.571,8.572C8.726,8.572 8.86,8.515 8.973,8.402C9.086,8.289 9.143,8.155 9.143,8L9.143,8ZM22.286,23.429L27.429,23.429L27.429,17.715L22.286,17.715L22.286,23.429ZM15.429,16.571L21.143,16.571L21.143,11.428L15.429,11.428L15.429,16.571ZM22.286,16.571L27.429,16.571L27.429,11.428L22.286,11.428L22.286,16.571ZM22.857,8L22.857,2.857C22.857,2.702 22.8,2.568 22.687,2.455C22.574,2.342 22.44,2.285 22.285,2.285L21.142,2.285C20.987,2.285 20.853,2.342 20.74,2.455C20.627,2.568 20.57,2.702 20.57,2.857L20.57,8C20.57,8.155 20.627,8.289 20.74,8.402C20.853,8.515 20.987,8.572 21.142,8.572L22.285,8.572C22.44,8.572 22.574,8.515 22.687,8.402C22.8,8.289 22.857,8.155 22.857,8L22.857,8ZM29.714,6.857L29.714,29.714C29.714,30.333 29.488,30.869 29.035,31.321C28.582,31.773 28.047,31.999 27.428,32L2.285,32C1.666,32 1.13,31.774 0.678,31.321C0.226,30.868 0,30.333 -0.001,29.714L-0.001,6.857C-0.001,6.238 0.225,5.702 0.678,5.25C1.131,4.798 1.666,4.572 2.285,4.571L4.571,4.571L4.571,2.857C4.571,2.071 4.851,1.398 5.41,0.839C5.969,0.28 6.642,0 7.428,0L8.571,0C9.357,0 10.03,0.28 10.589,0.839C11.148,1.398 11.428,2.071 11.428,2.857L11.428,4.571L18.285,4.571L18.285,2.857C18.285,2.071 18.565,1.398 19.124,0.839C19.683,0.28 20.356,0 21.142,0L22.285,0C23.071,0 23.744,0.28 24.303,0.839C24.862,1.398 25.142,2.071 25.142,2.857L25.142,4.571L27.428,4.571C28.047,4.571 28.583,4.797 29.035,5.25C29.487,5.703 29.713,6.238 29.714,6.857L29.714,6.857Z" style="fill-rule:nonzero;"/>
        </g>
    </g>
</svg>
