<?xml version="1.0" encoding="UTF-8" standalone="no"?><!DOCTYPE svg PUBLIC "-//W3C//DTD SVG 1.1//EN" "http://www.w3.org/Graphics/SVG/1.1/DTD/svg11.dtd"><svg width="100%" height="100%" viewBox="0 0 2134 2134" version="1.1" xmlns="http://www.w3.org/2000/svg" xmlns:xlink="http://www.w3.org/1999/xlink" xml:space="preserve" style="fill-rule:evenodd;clip-rule:evenodd;stroke-linejoin:round;stroke-miterlimit:1.41421;"><g id="Icon"><path d="M1616,212.173l0,1708.99c0,33.041 -12.069,61.666 -36.209,85.877c-24.139,24.21 -52.765,36.28 -85.877,36.209c-33.111,-0.071 -61.737,-12.141 -85.876,-36.209l-854.494,-854.494c-24.139,-24.139 -36.209,-52.765 -36.209,-85.876c0,-33.112 12.07,-61.738 36.209,-85.877l854.494,-854.494c24.139,-24.139 52.765,-36.209 85.876,-36.209c33.112,0 61.738,12.07 85.877,36.209c24.14,24.14 36.209,52.765 36.209,85.877l0,0Z" style="fill-rule:nonzero;"/></g></svg>