<?xml version="1.0" encoding="UTF-8" standalone="no"?><!DOCTYPE svg PUBLIC "-//W3C//DTD SVG 1.1//EN" "http://www.w3.org/Graphics/SVG/1.1/DTD/svg11.dtd"><svg width="100%" height="100%" viewBox="0 0 512 512" version="1.1" xmlns="http://www.w3.org/2000/svg" xmlns:xlink="http://www.w3.org/1999/xlink" xml:space="preserve" style="fill-rule:evenodd;clip-rule:evenodd;stroke-linejoin:round;stroke-miterlimit:1.41421;"><g id="icon"><path d="M295.157,402.879l0,-58.762c0,-2.856 -0.919,-5.204 -2.759,-7.043c-1.839,-1.839 -4.187,-2.759 -7.043,-2.759l-58.762,0c-2.856,0 -5.203,0.92 -7.043,2.759c-1.839,1.839 -2.759,4.187 -2.759,7.043l0,58.762c0,2.856 0.92,5.204 2.759,7.043c1.84,1.84 4.187,2.759 7.043,2.759l58.762,0c2.856,0 5.204,-0.919 7.043,-2.759c1.84,-1.839 2.759,-4.187 2.759,-7.043Zm78.333,-205.641c0,-17.948 -5.661,-34.576 -16.983,-49.885c-11.322,-15.309 -25.448,-27.139 -42.379,-35.49c-16.931,-8.351 -34.274,-12.533 -52.027,-12.544c-49.571,0 -87.415,21.729 -113.531,65.188c-3.062,4.901 -2.245,9.185 2.45,12.853l40.392,30.606c1.428,1.222 3.364,1.833 5.809,1.833c3.268,0 5.815,-1.222 7.643,-3.667c10.808,-13.869 19.582,-23.255 26.322,-28.156c6.935,-4.901 15.709,-7.351 26.322,-7.351c9.791,0 18.514,2.65 26.168,7.951c7.654,5.301 11.481,11.322 11.481,18.062c0,7.758 -2.039,13.978 -6.117,18.662c-4.079,4.684 -11.014,9.277 -20.804,13.778c-12.853,5.712 -24.637,14.538 -35.353,26.476c-10.716,11.939 -16.075,24.74 -16.075,38.404l0,11.019c0,2.856 0.92,5.204 2.759,7.043c1.84,1.839 4.187,2.759 7.044,2.759l58.761,0c2.857,0 5.204,-0.92 7.044,-2.759c1.839,-1.839 2.759,-4.187 2.759,-7.043c0,-3.873 2.193,-8.923 6.58,-15.149c4.387,-6.226 9.945,-11.276 16.674,-15.149c6.523,-3.667 11.522,-6.575 14.995,-8.723c3.473,-2.147 8.163,-5.718 14.069,-10.71c5.907,-4.992 10.448,-9.888 13.624,-14.686c3.176,-4.798 6.032,-10.968 8.568,-18.508c2.536,-7.54 3.81,-15.8 3.822,-24.78l-0.017,-0.034l0,0Zm117.523,58.762c0,42.636 -10.505,81.959 -31.514,117.969c-21.01,36.01 -49.52,64.52 -85.53,85.53c-36.01,21.009 -75.333,31.514 -117.969,31.514c-42.636,0 -81.959,-10.505 -117.969,-31.514c-36.01,-21.01 -64.52,-49.52 -85.53,-85.53c-21.009,-36.01 -31.514,-75.333 -31.514,-117.969c0,-42.636 10.505,-81.959 31.514,-117.969c21.01,-36.01 49.52,-64.52 85.53,-85.53c36.01,-21.009 75.333,-31.514 117.969,-31.514c42.636,0 81.959,10.505 117.969,31.514c36.01,21.01 64.52,49.52 85.53,85.53c21.009,36.01 31.514,75.333 31.514,117.969l0,0Z" style="fill-rule:nonzero;"/></g></svg>