<?xml version="1.0" encoding="UTF-8" standalone="no"?>
<!DOCTYPE svg PUBLIC "-//W3C//DTD SVG 1.1//EN" "http://www.w3.org/Graphics/SVG/1.1/DTD/svg11.dtd">
<svg width="100%" height="100%" viewBox="0 0 2134 2134" version="1.1" xmlns="http://www.w3.org/2000/svg" xmlns:xlink="http://www.w3.org/1999/xlink" xml:space="preserve" style="fill-rule:evenodd;clip-rule:evenodd;stroke-linejoin:round;stroke-miterlimit:1.41421;">
    <g transform="matrix(77.5553,0,0,77.5553,268.972,-85.6105)">
        <g id="Icon">
            <path d="M5.714,13.714L14.857,13.714L14.857,10.285C14.857,9.023 14.411,7.946 13.518,7.053C12.625,6.16 11.548,5.714 10.286,5.714C9.024,5.714 7.947,6.16 7.054,7.053C6.161,7.946 5.715,9.023 5.715,10.285L5.715,13.714L5.714,13.714ZM20.571,15.429L20.571,25.715C20.571,26.191 20.404,26.596 20.071,26.929C19.738,27.262 19.333,27.429 18.857,27.429L1.714,27.429C1.238,27.429 0.833,27.262 0.5,26.929C0.167,26.596 0,26.191 0,25.715L0,15.429C0,14.953 0.167,14.548 0.5,14.215C0.833,13.882 1.238,13.715 1.714,13.715L2.285,13.715L2.285,10.286C2.285,8.095 3.071,6.214 4.642,4.643C6.213,3.072 8.094,2.286 10.285,2.286C12.476,2.286 14.357,3.072 15.928,4.643C17.499,6.214 18.285,8.095 18.285,10.286L18.285,13.715L18.856,13.715C19.332,13.715 19.737,13.882 20.07,14.215C20.403,14.548 20.57,14.953 20.57,15.429L20.571,15.429Z" style="fill-rule:nonzero;"/>
        </g>
    </g>
</svg>
