<?xml version="1.0" encoding="UTF-8" standalone="no"?>
<!DOCTYPE svg PUBLIC "-//W3C//DTD SVG 1.1//EN" "http://www.w3.org/Graphics/SVG/1.1/DTD/svg11.dtd">
<svg width="100%" height="100%" viewBox="0 0 2134 2134" version="1.1" xmlns="http://www.w3.org/2000/svg" xmlns:xlink="http://www.w3.org/1999/xlink" xml:space="preserve" style="fill-rule:evenodd;clip-rule:evenodd;stroke-linejoin:round;stroke-miterlimit:1.41421;">
    <g transform="matrix(-63.2602,-7.74714e-15,7.74714e-15,-63.2602,1500.35,2115.01)">
        <path d="M13.661,8.804C13.554,9.03 13.381,9.143 13.143,9.143L9.143,9.143L9.143,31.429C9.143,31.596 9.089,31.733 8.982,31.84C8.875,31.947 8.738,32.001 8.571,32.001L5.142,32.001C4.975,32.001 4.838,31.947 4.731,31.84C4.624,31.733 4.57,31.596 4.57,31.429L4.57,9.143L0.57,9.143C0.32,9.143 0.147,9.03 0.052,8.804C-0.043,8.578 -0.014,8.37 0.141,8.179L6.391,1.322C6.51,1.203 6.647,1.143 6.802,1.143C6.969,1.143 7.112,1.203 7.231,1.322L13.57,8.179C13.725,8.37 13.754,8.578 13.659,8.804L13.661,8.804Z" style="fill-rule:nonzero;fill:#5a80a5"/>
    </g>
</svg>
