<?xml version="1.0" encoding="UTF-8" standalone="no"?><!DOCTYPE svg PUBLIC "-//W3C//DTD SVG 1.1//EN" "http://www.w3.org/Graphics/SVG/1.1/DTD/svg11.dtd"><svg width="100%" height="100%" viewBox="0 0 2134 2134" version="1.1" xmlns="http://www.w3.org/2000/svg" xmlns:xlink="http://www.w3.org/1999/xlink" xml:space="preserve" style="fill-rule:evenodd;clip-rule:evenodd;stroke-linejoin:round;stroke-miterlimit:1.41421;"><path id="Icon" d="M1066.67,1616c-33.04,0 -61.666,-12.07 -85.877,-36.209l-854.494,-854.495c-24.14,-24.139 -36.21,-52.765 -36.21,-85.877c0,-33.111 12.07,-61.737 36.21,-85.876c24.139,-24.14 52.765,-36.21 85.876,-36.21l1708.99,0c33.04,0 61.666,12.07 85.877,36.21c24.21,24.139 36.28,52.765 36.209,85.876c-0.071,33.112 -12.141,61.738 -36.209,85.877l-854.495,854.495c-24.14,24.139 -52.765,36.209 -85.877,36.209l0,0Z" style="fill:#ffffff;fill-rule:nonzero;"/></svg>