<?xml version="1.0" encoding="UTF-8" standalone="no"?><!DOCTYPE svg PUBLIC "-//W3C//DTD SVG 1.1//EN" "http://www.w3.org/Graphics/SVG/1.1/DTD/svg11.dtd"><svg width="100%" height="100%" viewBox="0 0 2134 2134" version="1.1" xmlns="http://www.w3.org/2000/svg" xmlns:xlink="http://www.w3.org/1999/xlink" xml:space="preserve" style="fill-rule:evenodd;clip-rule:evenodd;stroke-linejoin:round;stroke-miterlimit:1.41421;"><g id="Icon"><path d="M2008.69,1269.54c0,4.212 -0.426,7.17 -1.278,8.874c-54.1,226.528 -167.364,410.15 -339.792,550.866c-172.428,140.716 -374.438,211.074 -606.031,211.074c-123.392,0 -242.786,-23.239 -358.18,-69.719c-115.393,-46.479 -218.292,-112.838 -308.695,-199.075l-163.577,163.577c-16.045,16.045 -35.072,24.068 -57.082,24.068c-22.009,0 -41.036,-8.023 -57.081,-24.068c-16.045,-16.045 -24.068,-35.073 -24.068,-57.082l0,-567.976c0,-21.962 8.023,-40.989 24.068,-57.082c16.045,-16.092 35.072,-24.115 57.081,-24.068l567.977,0c21.961,0 40.989,8.023 57.081,24.068c16.093,16.046 24.116,35.073 24.068,57.082c-0.047,22.009 -8.07,41.036 -24.068,57.082l-173.658,173.658c60.016,55.804 128.055,98.899 204.116,129.286c76.062,30.387 155.081,45.604 237.059,45.651c113.264,0 218.908,-27.476 316.931,-82.428c98.023,-54.951 176.617,-130.587 235.781,-226.906c9.277,-14.389 31.665,-63.826 67.163,-148.313c6.769,-19.453 19.453,-29.18 38.055,-29.18l243.448,0c10.981,0 20.495,4.024 28.541,12.07c8.047,8.046 12.07,17.56 12.07,28.541l0.071,0Zm31.735,-1014.26l0,567.976c0,21.962 -8.022,40.989 -24.068,57.082c-16.045,16.093 -35.072,24.115 -57.081,24.068l-567.976,0c-21.962,0 -40.989,-8.023 -57.082,-24.068c-16.093,-16.045 -24.115,-35.073 -24.068,-57.082c0.047,-22.009 8.07,-41.036 24.068,-57.081l174.937,-174.937c-125.097,-115.772 -272.582,-173.659 -442.454,-173.659c-113.264,0 -218.907,27.476 -316.931,82.428c-98.023,54.952 -176.617,130.587 -235.781,226.906c-9.277,14.389 -31.664,63.827 -67.163,148.313c-6.768,19.453 -19.453,29.18 -38.054,29.18l-252.324,0c-10.981,0 -20.494,-4.023 -28.541,-12.07c-8.046,-8.046 -12.069,-17.559 -12.069,-28.54l0,-8.875c54.952,-226.528 169.044,-410.15 342.277,-550.866c173.232,-140.716 376.071,-211.074 608.515,-211.074c123.393,0 243.402,23.453 360.026,70.358c116.625,46.905 220.162,113.051 310.612,198.437l164.784,-163.578c16.046,-16.045 35.073,-24.068 57.082,-24.068c22.009,0 41.036,8.023 57.081,24.068c16.046,16.046 24.068,35.073 24.068,57.082l0.142,0Z" style="fill-rule:nonzero;"/></g></svg>