<svg class="icon__svg" viewBox="0 0 512 512" version="1.1">
    <path d="M490.057,224.079l0,63.842c0,8.862 -3.103,16.396 -9.309,22.602c-6.206,6.206 -13.74,9.309 -22.602,9.309l-138.314,0l0,138.314c0,8.862 -3.103,16.396 -9.309,22.602c-6.206,6.206 -13.74,9.309 -22.602,9.309l-63.842,0c-8.862,0 -16.396,-3.103 -22.602,-9.309c-6.206,-6.206 -9.309,-13.74 -9.309,-22.602l0,-138.314l-138.314,0c-8.862,0 -16.396,-3.103 -22.602,-9.309c-6.206,-6.206 -9.309,-13.74 -9.309,-22.602l0,-63.842c0,-8.862 3.103,-16.396 9.309,-22.602c6.206,-6.206 13.74,-9.309 22.602,-9.309l138.314,0l0,-138.314c0,-8.862 3.103,-16.396 9.309,-22.602c6.206,-6.206 13.74,-9.309 22.602,-9.309l63.842,0c8.862,0 16.396,3.103 22.602,9.309c6.206,6.206 9.309,13.74 9.309,22.602l0,138.314l138.314,0c8.862,0 16.396,3.103 22.602,9.309c6.206,6.206 9.309,13.74 9.309,22.602l0,0Z" style="fill-rule:nonzero;"/>
</svg>