<?xml version="1.0" encoding="utf-8"?>
<!-- Generator: Adobe Illustrator 21.1.0, SVG Export Plug-In . SVG Version: 6.00 Build 0)  -->
<svg version="1.1" id="Слой_2" xmlns="http://www.w3.org/2000/svg" xmlns:xlink="http://www.w3.org/1999/xlink" x="0px" y="0px"
	 viewBox="0 0 2127.13 253.41" style="enable-background:new 0 0 2127.13 253.41;" xml:space="preserve">
<style type="text/css">
	.st0{fill:#FFFFFF;}
	.st1{fill:#3B424B;}
	.st2{fill:#646A71;}
	.st3{fill:#FFCC00;}
</style>
<path class="st0" d="M2123.6,75.598c-2.324-5.835-5.691-11.011-10.005-15.379c-4.328-4.366-9.638-7.787-15.786-10.173
	c-6.089-2.364-12.955-3.562-20.406-3.562H2016.3v160.348h21.048v-63.236h40.055c7.372,0,14.223-1.393,20.363-4.139
	c6.119-2.739,11.42-6.435,15.757-10.985c4.359-4.555,7.75-9.784,10.073-15.536c2.344-5.766,3.535-11.808,3.535-17.951
	C2127.13,87.959,2125.942,81.436,2123.6,75.598z M2037.348,123.662V66.307h38.715c8.664,0,15.83,2.504,21.301,7.444
	c5.338,4.832,8.046,11.977,8.046,21.234c0,3.743-0.734,7.336-2.183,10.678c-1.481,3.417-3.554,6.501-6.163,9.166
	c-2.604,2.672-5.766,4.839-9.401,6.443c-3.594,1.587-7.497,2.391-11.601,2.391H2037.348z"/>
<path class="st0" d="M1971.071,92.256c-3.504-9.874-8.566-18.623-15.048-26.009c-6.507-7.413-14.452-13.353-23.614-17.656
	c-9.136-4.296-19.406-6.711-30.525-7.178l-1.041-0.044l-0.822-0.035V41.3l-0.502,0.014l-1.802-0.076v0.125l-0.777,0.021
	l-1.027,0.028c-11.504,0.311-22.03,2.649-31.285,6.951c-9.264,4.296-17.302,10.232-23.886,17.644
	c-6.564,7.375-11.671,16.132-15.177,26.025c-3.483,9.829-5.248,20.56-5.248,31.894c0,11.335,1.766,22.066,5.248,31.894
	c3.505,9.89,8.611,18.647,15.178,26.027c6.581,7.406,14.631,13.36,23.924,17.695c9.304,4.339,19.816,6.698,31.245,7.01l1.029,0.027
	l0.775,0.021v0.152l2.021-0.098l0.283,0.008v-0.021l0.84-0.041l1.049-0.051c11.112-0.545,21.373-2.998,30.5-7.291
	c9.161-4.301,17.107-10.241,23.614-17.655c6.481-7.385,11.544-16.134,15.047-26.006c3.477-9.847,5.239-20.502,5.239-31.672
	C1976.31,112.754,1974.547,102.099,1971.071,92.256z M1899.471,186.953l-2.354-0.076l-0.967-0.031
	c-8.387-0.277-15.991-2.022-22.599-5.187c-6.591-3.157-12.3-7.542-16.968-13.034c-4.701-5.533-8.331-12.153-10.79-19.675
	c-2.495-7.631-3.761-16.05-3.761-25.023c0-8.968,1.264-17.345,3.757-24.9c2.458-7.454,6.09-14.04,10.794-19.575
	c4.678-5.503,10.397-9.931,16.998-13.162c6.597-3.228,14.19-5.005,22.571-5.282l0.968-0.032l0.595-0.02v0.078l2.847,0.145
	l0.949,0.048c8.11,0.417,15.497,2.265,21.955,5.494c6.459,3.237,12.053,7.629,16.624,13.053c4.591,5.449,8.192,12.008,10.702,19.493
	c2.52,7.516,3.797,15.812,3.797,24.659c0,8.847-1.278,17.143-3.797,24.659c-2.513,7.495-6.119,14.098-10.718,19.626
	c-4.568,5.49-10.156,9.913-16.609,13.146c-6.458,3.227-13.845,5.076-21.955,5.492l-0.95,0.049L1899.471,186.953z"/>
<path class="st0" d="M1780.595,160.655c0,5.067-0.83,10.29-2.468,15.525c-1.691,5.401-4.62,10.439-8.708,14.976
	c-4.096,4.546-9.673,8.337-16.578,11.267c-6.824,2.896-15.489,4.522-25.758,4.833l-1.03,0.03l-0.776,0.023v0.049l-0.902-0.022
	l-1.411,0.042v-0.076l-0.762-0.019l-1.026-0.025c-12.458-0.311-23.348-2.866-32.37-7.593c-8.956-4.693-16.522-10.775-22.489-18.078
	l-0.531-0.65l-1.594-1.952l13.748-15.919l3.018,3.608c2.147,2.564,4.651,5.067,7.443,7.44c2.767,2.353,5.866,4.519,9.211,6.436
	c3.31,1.896,7.012,3.508,11.004,4.792c3.899,1.255,8.198,1.96,12.78,2.095l0.971,0.029l1.263,0.038l2.271-0.048l0.982-0.021
	c6.732-0.136,12.307-1.133,16.57-2.965c4.216-1.812,7.549-4.023,9.907-6.571c2.318-2.505,3.93-5.24,4.79-8.127
	c0.926-3.111,1.396-6.179,1.396-9.119c0-4.042-0.855-7.816-2.541-11.218c-1.708-3.449-4.04-6.403-6.929-8.779
	c-2.959-2.432-6.494-4.354-10.51-5.714c-4.061-1.377-8.376-2.075-12.825-2.075h-35.229v-19.934h35.229
	c4.293,0,8.433-0.55,12.302-1.635c3.694-1.039,6.926-2.665,9.605-4.835c2.645-2.142,4.773-4.868,6.327-8.104
	c1.552-3.229,2.339-7.186,2.339-11.762c0-3.437-0.737-6.639-2.19-9.516c-1.479-2.926-3.575-5.483-6.23-7.6
	c-2.735-2.181-6.011-3.906-9.736-5.125c-3.815-1.25-7.96-1.953-12.319-2.09l-0.969-0.03l-2.526-0.079l-0.898,0.051l-0.944,0.054
	c-7.335,0.415-14.197,2.093-20.394,4.985c-6.135,2.863-11.608,7.093-16.266,12.572l-2.95,3.47l-14.133-15.58l2.304-2.679
	c5.857-6.808,13.13-12.221,21.616-16.088c8.425-3.841,18.326-6.024,29.429-6.49l1.042-0.044l0.814-0.034v-0.016l0.254,0.006
	l2.058-0.087v0.133l0.755,0.017l1.023,0.023c6.919,0.156,13.551,1.297,19.711,3.39c6.227,2.116,11.73,5.106,16.357,8.887
	c4.699,3.841,8.43,8.506,11.089,13.866c2.682,5.404,4.041,11.462,4.041,18.006c0,10.429-2.538,19.114-7.543,25.815
	c-3.273,4.382-7.359,7.977-12.193,10.736c1.164,0.638,2.302,1.29,3.407,1.954c3.702,2.221,6.999,5.017,9.8,8.312
	c2.839,3.341,5.056,7.281,6.588,11.711C1779.827,149.51,1780.595,154.734,1780.595,160.655z"/>
<path class="st0" d="M1614.996,187.21l-51.191-140.527h-22.758l-51.191,140.527h-15.587v48.597h19.487v-28.775h117.34v28.775h19.487
	V187.21H1614.996z M1512.063,187.21l40.363-112.267l40.363,112.267H1512.063z"/>
<path class="st0" d="M1371.527,46.744l-22.475,0.072l-65.615,160.349h23.718l16.391-40.932h72.616l16.324,40.932h23.694
	L1371.527,46.744z M1331.751,145.741l28.177-70.364l28.061,70.364H1331.751z"/>
<path class="st0" d="M1244.991,46.815v160.349h-20.826v-71.936h-88.359v71.936h-20.826V46.815h20.826v68.479h88.359V46.815H1244.991
	z"/>
<g>
	<path class="st0" d="M1019.71,0H831.001c-4.841,0-8.765,3.923-8.765,8.765V150.3c0.005,57.13,95.477,100.528,99.542,102.346
		c1.139,0.51,2.36,0.764,3.581,0.764c1.221,0,2.443-0.255,3.58-0.764c4.066-1.82,99.535-45.216,99.535-102.347V8.765
		C1028.475,3.923,1024.552,0,1019.71,0z M1010.945,150.299c0,36.308-58.698,71.869-85.584,84.688
		c-26.888-12.819-85.589-48.379-85.593-84.688V17.53h171.178v132.768H1010.945z"/>
	<path class="st1" d="M925.061,234.987c0,0-85.13-39.954-85.651-82.479l0.069-134.978h85.741h85.734l0.062,134.978
		c-0.514,42.525-85.644,82.479-85.644,82.479"/>
	<path class="st2" d="M1011.22,152.955c-0.52,42.524-85.652,82.479-85.652,82.479l-0.213-217.458h85.797L1011.22,152.955z"/>
</g>
<path class="st3" d="M733.459,76.6c-2.347-5.868-5.718-11.043-10.018-15.384c-4.323-4.363-9.633-7.784-15.781-10.17
	c-6.091-2.363-12.957-3.562-20.407-3.562H626.15v160.348h21.048v-63.236h40.054c7.375,0,14.229-1.393,20.371-4.139
	c6.102-2.733,11.403-6.427,15.756-10.982c4.346-4.547,7.735-9.774,10.072-15.536c2.341-5.77,3.528-11.81,3.528-17.954
	C736.979,88.962,735.795,82.44,733.459,76.6z M647.199,124.663V67.308h38.716c8.67,0,15.835,2.504,21.295,7.442
	c5.342,4.833,8.051,11.978,8.051,21.235c0,3.744-0.734,7.337-2.181,10.68c-1.47,3.398-3.543,6.482-6.162,9.167
	c-2.602,2.666-5.766,4.833-9.404,6.439c-3.595,1.586-7.498,2.391-11.6,2.391H647.199z"/>
<path class="st3" d="M585.483,47.485v19.823h-83.536v48.435h81.975v19.934h-81.975v52.337h83.536v19.822l-104.584-0.002V47.485
	H585.483z"/>
<path class="st3" d="M436.873,141.402c-2.291-5.746-5.571-10.962-9.75-15.503c-4.216-4.579-9.416-8.289-15.456-11.027
	c-6.072-2.753-12.894-4.148-20.276-4.148h-40.054V67.308h78.292V47.485h-99.341v160.348h61.102c7.462,0,14.296-1.2,20.313-3.567
	c6.084-2.394,11.321-5.823,15.567-10.192c4.232-4.354,7.508-9.543,9.738-15.421c2.208-5.82,3.327-12.32,3.327-19.319
	C440.336,153.198,439.171,147.165,436.873,141.402z M351.337,188.013v-57.356h38.715c4.102,0,8.005,0.805,11.601,2.392
	c3.637,1.604,6.801,3.77,9.404,6.438c2.616,2.682,4.687,5.782,6.156,9.212c1.451,3.383,2.186,6.961,2.186,10.637
	c0,9.257-2.709,16.401-8.051,21.235c-5.459,4.939-12.624,7.443-21.295,7.443H351.337z"/>
<path class="st3" d="M294.869,207.766h-21.05V78.386l-92.226,129.38h-27.732c-0.117-53.45-0.234-106.899-0.351-160.349
	c6.979,0,13.958,0,20.937,0V178.77l94.139-131.353h26.21L294.869,207.766z"/>
<path class="st3" d="M122.5,207.833H95.087l-61.042-69.828l-12.997,14.3v55.528H0V47.485h21.048v74.634l67.726-74.634h27.543
	L47.65,123.037L122.5,207.833z"/>
</svg>
