<?xml version="1.0" encoding="UTF-8" standalone="no"?>
<!DOCTYPE svg PUBLIC "-//W3C//DTD SVG 1.1//EN" "http://www.w3.org/Graphics/SVG/1.1/DTD/svg11.dtd">
<svg width="100%" height="100%" viewBox="0 0 684 110" version="1.1" xmlns="http://www.w3.org/2000/svg" xmlns:xlink="http://www.w3.org/1999/xlink" xml:space="preserve" style="fill-rule:evenodd;clip-rule:evenodd;stroke-linejoin:round;stroke-miterlimit:1.41421;">
<g>
    <path d="M341.376,59.581l0,-45.834l-32.083,0l0,81.426c5.681,-3.008 10.766,-6.278 15.255,-9.81c11.218,-8.785 16.828,-17.379 16.828,-25.782Zm13.747,-54.997l0,54.997c0,4.107 -0.8,8.177 -2.398,12.211c-1.599,4.035 -3.58,7.616 -5.944,10.744c-2.363,3.128 -5.18,6.172 -8.449,9.131c-3.27,2.96 -6.29,5.418 -9.06,7.375c-2.769,1.957 -5.658,3.808 -8.666,5.551c-3.008,1.743 -5.144,2.925 -6.408,3.545c-1.265,0.62 -2.279,1.097 -3.044,1.431c-0.572,0.287 -1.192,0.43 -1.861,0.43c-0.668,0 -1.289,-0.143 -1.861,-0.43c-0.764,-0.334 -1.779,-0.811 -3.043,-1.431c-1.265,-0.62 -3.401,-1.802 -6.409,-3.545c-3.008,-1.743 -5.896,-3.594 -8.666,-5.551c-2.77,-1.957 -5.79,-4.415 -9.059,-7.375c-3.27,-2.959 -6.087,-6.003 -8.45,-9.131c-2.364,-3.128 -4.345,-6.709 -5.943,-10.744c-1.599,-4.034 -2.399,-8.104 -2.399,-12.211l0,-54.997c0,-1.241 0.454,-2.315 1.36,-3.224c0.906,-0.909 1.981,-1.363 3.224,-1.36l82.496,0c1.241,0 2.315,0.453 3.224,1.36c0.909,0.906 1.363,1.981 1.36,3.224l-0.004,0Z" style="fill:#fff;fill-rule:nonzero;"/>
    <g>
        <path d="M0,27.127l7.401,0l0,24.49c3.382,0 5.76,-0.655 7.133,-1.964c1.373,-1.31 3.128,-4.457 5.264,-9.442c1.552,-3.662 2.83,-6.25 3.834,-7.763c1.005,-1.513 2.435,-2.784 4.292,-3.814c1.856,-1.03 3.903,-1.545 6.141,-1.545c2.849,0 4.349,0.025 4.502,0.076l0,6.409c-0.255,0 -0.751,-0.013 -1.488,-0.039c-0.814,-0.025 -1.31,-0.038 -1.488,-0.038c-2.365,0 -4.12,0.573 -5.264,1.717c-1.17,1.144 -2.505,3.586 -4.006,7.324c-1.882,4.73 -3.471,7.712 -4.768,8.946c-1.297,1.233 -2.848,2.218 -4.654,2.956c3.611,0.992 7.172,4.323 10.681,9.994l11.521,18.616l-9.194,0l-9.346,-15.182c-2.568,-4.196 -4.717,-7.077 -6.447,-8.641c-1.729,-1.564 -3.967,-2.346 -6.713,-2.346l0,26.169l-7.401,0l0,-55.923Z" style="fill:#fc0;fill-rule:nonzero;"/>
        <path d="M45.509,27.127l6.714,0l0,44.288l29.755,-44.288l7.439,0l0,55.923l-6.714,0l0,-44.174l-29.793,44.174l-7.401,0l0,-55.923Z" style="fill:#fc0;fill-rule:nonzero;"/><path d="M101.891,27.127l36.277,0l0,6.599l-28.877,0l0,17.243l13.352,0c4.933,0 8.856,0.47 11.768,1.411c2.912,0.941 5.245,2.715 7,5.322c1.755,2.606 2.632,5.639 2.632,9.098c0,2.822 -0.629,5.461 -1.888,7.915c-1.259,2.454 -3.135,4.457 -5.627,6.008c-2.492,1.552 -6.739,2.327 -12.741,2.327l-21.896,0l0,-55.923Zm7.4,49.629l14.801,0c3.993,0 6.987,-0.814 8.984,-2.441c1.996,-1.628 2.994,-4.069 2.994,-7.325c0,-2.314 -0.572,-4.247 -1.716,-5.798c-1.145,-1.551 -2.734,-2.581 -4.769,-3.09c-2.034,-0.509 -5.506,-0.763 -10.414,-0.763l-9.88,0l0,19.417Z" style="fill:#fc0;fill-rule:nonzero;"/>
        <path d="M152.969,83.05l0,-55.923l40.436,0l0,6.599l-33.035,0l0,17.128l30.937,0l0,6.561l-30.937,0l0,19.036l34.332,0l0,6.599l-41.733,0Z" style="fill:#fc0;fill-rule:nonzero;"/><path d="M204.926,83.05l0,-55.923l21.095,0c3.713,0 6.548,0.178 8.507,0.534c2.746,0.458 5.048,1.329 6.904,2.613c1.857,1.284 3.351,3.083 4.482,5.398c1.132,2.314 1.698,4.857 1.698,7.629c0,4.756 -1.513,8.78 -4.539,12.074c-3.027,3.293 -8.495,4.94 -16.404,4.94l-14.343,0l0,22.735l-7.4,0Zm7.4,-29.335l14.458,0c4.781,0 8.176,-0.89 10.185,-2.67c2.009,-1.78 3.014,-4.285 3.014,-7.515c0,-2.34 -0.592,-4.342 -1.774,-6.008c-1.183,-1.666 -2.74,-2.766 -4.673,-3.3c-1.246,-0.331 -3.548,-0.496 -6.905,-0.496l-14.305,0l0,19.989Z" style="fill:#fc0;fill-rule:nonzero;"/>
    </g>
    <g>
        <path d="M370.348,83.05l0,-55.923l7.4,0l0,22.964l29.068,0l0,-22.964l7.401,0l0,55.923l-7.401,0l0,-26.359l-29.068,0l0,26.359l-7.4,0Z" style="fill:#fff;fill-rule:nonzero;"/><path d="M420.397,83.05l21.476,-55.923l7.973,0l22.888,55.923l-8.43,0l-6.523,-16.937l-23.384,0l-6.142,16.937l-7.858,0Zm16.136,-22.964l18.959,0l-5.837,-15.488c-1.78,-4.705 -3.102,-8.57 -3.967,-11.597c-0.712,3.586 -1.717,7.147 -3.014,10.682l-6.141,16.403Z" style="fill:#fff;fill-rule:nonzero;"/><path d="M486.315,27.127l34.027,0l0,49.324l5.035,0l0,19.645l-6.599,0l0,-13.046l-36.965,0l0,13.046l-6.599,0l0,-19.645l4.349,0c4.501,-6.79 6.752,-20.511 6.752,-41.161l0,-8.163Zm26.626,6.599l-19.493,0l0,2.861c0,4.756 -0.426,11.26 -1.278,19.512c-0.852,8.253 -2.524,15.037 -5.016,20.352l25.787,0l0,-42.725Z" style="fill:#fff;fill-rule:nonzero;"/><path d="M531.099,67.257l7.057,-1.831c0.534,2.721 1.965,5.443 4.292,8.164c2.327,2.721 5.41,4.081 9.251,4.081c3.916,0 7.006,-1.004 9.269,-3.013c2.264,-2.009 3.395,-4.438 3.395,-7.286c0,-3.077 -1.195,-5.525 -3.586,-7.343c-2.39,-1.819 -5.645,-2.728 -9.765,-2.728l-3.548,0l0,-6.447c3.408,0 6.015,-0.197 7.82,-0.591c1.806,-0.394 3.402,-1.399 4.788,-3.014c1.386,-1.615 2.079,-3.452 2.079,-5.512c0,-2.441 -0.948,-4.565 -2.842,-6.371c-1.895,-1.805 -4.457,-2.708 -7.687,-2.708c-2.823,0 -5.232,0.706 -7.229,2.117c-1.996,1.412 -3.376,3.281 -4.139,5.608c-0.763,2.327 -1.144,4.062 -1.144,5.207l-7.095,-1.602c1.754,-11.877 8.316,-17.815 19.684,-17.815c5.467,0 9.803,1.52 13.008,4.559c3.204,3.039 4.806,6.593 4.806,10.662c0,5.213 -2.467,9.257 -7.4,12.13c2.848,0.789 5.232,2.397 7.152,4.826c1.92,2.429 2.88,5.334 2.88,8.717c0,4.806 -1.863,8.831 -5.588,12.073c-3.726,3.243 -8.666,4.864 -14.82,4.864c-10.58,0 -17.459,-5.582 -20.638,-16.747Z" style="fill:#fff;fill-rule:nonzero;"/><path d="M578.211,55.813c0,-9.282 2.492,-16.549 7.476,-21.801c4.985,-5.251 11.419,-7.877 19.303,-7.877c5.162,0 9.816,1.233 13.962,3.7c4.145,2.467 7.305,5.907 9.479,10.319c2.175,4.412 3.262,9.416 3.262,15.011c0,5.671 -1.145,10.745 -3.434,15.22c-2.288,4.476 -5.531,7.865 -9.727,10.167c-4.196,2.301 -8.723,3.452 -13.58,3.452c-5.265,0 -9.969,-1.272 -14.115,-3.815c-4.145,-2.543 -7.286,-6.014 -9.422,-10.414c-2.136,-4.4 -3.204,-9.053 -3.204,-13.962Zm7.629,0.115c0,6.739 1.812,12.048 5.436,15.926c3.624,3.878 8.17,5.817 13.638,5.817c5.569,0 10.153,-1.958 13.752,-5.874c3.598,-3.917 5.397,-9.473 5.397,-16.67c0,-4.553 -0.769,-8.526 -2.308,-11.921c-1.538,-3.395 -3.789,-6.028 -6.752,-7.897c-2.962,-1.869 -6.287,-2.804 -9.975,-2.804c-5.239,0 -9.747,1.8 -13.523,5.398c-3.777,3.599 -5.665,9.607 -5.665,18.025Z" style="fill:#fff;fill-rule:nonzero;"/>
        <path d="M641.229,83.05l0,-55.923l21.096,0c3.713,0 6.548,0.178 8.507,0.534c2.746,0.458 5.048,1.329 6.904,2.613c1.857,1.284 3.351,3.083 4.482,5.398c1.132,2.314 1.698,4.857 1.698,7.629c0,4.756 -1.513,8.78 -4.54,12.074c-3.026,3.293 -8.494,4.94 -16.403,4.94l-14.343,0l0,22.735l-7.401,0Zm7.401,-29.335l14.458,0c4.781,0 8.176,-0.89 10.185,-2.67c2.009,-1.78 3.014,-4.285 3.014,-7.515c0,-2.34 -0.592,-4.342 -1.774,-6.008c-1.183,-1.666 -2.741,-2.766 -4.673,-3.3c-1.246,-0.331 -3.548,-0.496 -6.905,-0.496l-14.305,0l0,19.989Z" style="fill:#fff;fill-rule:nonzero;"/>
    </g>
</g>
</svg>